<svg width="168" height="166" version="1.1" xmlns="http://www.w3.org/2000/svg" desc="Created with imagetracer.js version 1.2.6" ><path fill="rgb(66,67,73)" stroke="rgb(66,67,73)" stroke-width="1" opacity="0.7568627450980392" d="M 97.5 6 L 99 6.5 L 96.5 8 L 97.5 6 Z " /><path fill="rgb(66,67,73)" stroke="rgb(66,67,73)" stroke-width="1" opacity="0.7568627450980392" d="M 111.5 6 L 112.5 8 L 111.5 6 Z " /><path fill="rgb(66,67,73)" stroke="rgb(66,67,73)" stroke-width="1" opacity="0.7568627450980392" d="M 53.5 8 L 50.5 12 L 53.5 8 Z " /><path fill="rgb(66,67,73)" stroke="rgb(66,67,73)" stroke-width="1" opacity="0.7568627450980392" d="M 94.5 8 L 91.5 12 L 94.5 8 Z " /><path fill="rgb(66,67,73)" stroke="rgb(66,67,73)" stroke-width="1" opacity="0.7568627450980392" d="M 114.5 8 L 118.5 13 L 114.5 8 Z " /><path fill="rgb(66,67,73)" stroke="rgb(66,67,73)" stroke-width="1" opacity="0.7568627450980392" d="M 48.5 15 L 49 16.5 L 47.5 21 L 47 17.5 L 48.5 15 Z " /><path fill="rgb(66,67,73)" stroke="rgb(66,67,73)" stroke-width="1" opacity="0.7568627450980392" d="M 79.5 17 L 80 143.5 L 79 143.5 L 79.5 17 Z " /><path fill="rgb(66,67,73)" stroke="rgb(66,67,73)" stroke-width="1" opacity="0.7568627450980392" d="M 39.5 24 L 38.5 26 L 39.5 24 Z " /><path fill="rgb(66,67,73)" stroke="rgb(66,67,73)" stroke-width="1" opacity="0.7568627450980392" d="M 131.5 26 L 134.5 30 L 131.5 26 Z " /><path fill="rgb(66,67,73)" stroke="rgb(66,67,73)" stroke-width="1" opacity="0.7568627450980392" d="M 36.5 27 L 34.5 30 L 36.5 27 Z " /><path fill="rgb(66,67,73)" stroke="rgb(66,67,73)" stroke-width="1" opacity="0.7568627450980392" d="M 31.5 37 L 32 41.5 L 31 41.5 L 31.5 37 Z " /><path fill="rgb(66,67,73)" stroke="rgb(66,67,73)" stroke-width="1" opacity="0.7568627450980392" d="M 25.5 48 L 23.5 51 L 25.5 48 Z " /><path fill="rgb(66,67,73)" stroke="rgb(66,67,73)" stroke-width="1" opacity="0.7568627450980392" d="M 144.5 49 L 145.5 51 L 144.5 49 Z " /><path fill="rgb(66,67,73)" stroke="rgb(66,67,73)" stroke-width="1" opacity="0.7568627450980392" d="M 21.5 52 L 19.5 55 L 21.5 52 Z " /><path fill="rgb(66,67,73)" stroke="rgb(66,67,73)" stroke-width="1" opacity="0.7568627450980392" d="M 147.5 52 L 148.5 54 L 147.5 52 Z " /><path fill="rgb(66,67,73)" stroke="rgb(66,67,73)" stroke-width="1" opacity="0.7568627450980392" d="M 18.5 56 L 19 57.5 L 17.5 60 L 17 58.5 L 18.5 56 Z " /><path fill="rgb(66,67,73)" stroke="rgb(66,67,73)" stroke-width="1" opacity="0.7568627450980392" d="M 16.5 63 L 17 65.5 L 16 65.5 L 16.5 63 Z " /><path fill="rgb(66,67,73)" stroke="rgb(66,67,73)" stroke-width="1" opacity="0.7568627450980392" d="M 151.5 69 L 152 71.5 L 151 71.5 L 151.5 69 Z " /><path fill="rgb(66,67,73)" stroke="rgb(66,67,73)" stroke-width="1" opacity="0.7568627450980392" d="M 17.5 70 L 19 73.5 L 18 73.5 L 17.5 70 Z " /><path fill="rgb(66,67,73)" stroke="rgb(66,67,73)" stroke-width="1" opacity="0.7568627450980392" d="M 19.5 75 L 20.5 77 L 19.5 75 Z " /><path fill="rgb(66,67,73)" stroke="rgb(66,67,73)" stroke-width="1" opacity="0.7568627450980392" d="M 149.5 77 L 152.5 81 L 149.5 77 Z " /><path fill="rgb(66,67,73)" stroke="rgb(66,67,73)" stroke-width="1" opacity="0.7568627450980392" d="M 17.5 79 L 14.5 83 L 17.5 79 Z " /><path fill="rgb(66,67,73)" stroke="rgb(66,67,73)" stroke-width="1" opacity="0.7568627450980392" d="M 159.5 93 L 160 98.5 L 159 98.5 L 159.5 93 Z " /><path fill="rgb(66,67,73)" stroke="rgb(66,67,73)" stroke-width="1" opacity="0.7568627450980392" d="M 13.5 108 L 18.5 114 L 13.5 108 Z " /><path fill="rgb(66,67,73)" stroke="rgb(66,67,73)" stroke-width="1" opacity="0.7568627450980392" d="M 155.5 108 L 154.5 110 L 155.5 108 Z " /><path fill="rgb(66,67,73)" stroke="rgb(66,67,73)" stroke-width="1" opacity="0.7568627450980392" d="M 151.5 112 L 150.5 114 L 151.5 112 Z " /><path fill="rgb(66,67,73)" stroke="rgb(66,67,73)" stroke-width="1" opacity="0.7568627450980392" d="M 25.5 117 L 26 120.5 L 25 120.5 L 25.5 117 Z " /><path fill="rgb(66,67,73)" stroke="rgb(66,67,73)" stroke-width="1" opacity="0.7568627450980392" d="M 144.5 119 L 145 127.5 L 144 127.5 L 144.5 119 Z " /><path fill="rgb(66,67,73)" stroke="rgb(66,67,73)" stroke-width="1" opacity="0.7568627450980392" d="M 25.5 126 L 26 128.5 L 25 128.5 L 25.5 126 Z " /><path fill="rgb(66,67,73)" stroke="rgb(66,67,73)" stroke-width="1" opacity="0.7568627450980392" d="M 142.5 132 L 142 133.5 L 136.5 140 L 141 134.5 L 142.5 132 Z " /><path fill="rgb(66,67,73)" stroke="rgb(66,67,73)" stroke-width="1" opacity="0.7568627450980392" d="M 27.5 133 L 32 138.5 L 28 135.5 L 27.5 133 Z " /><path fill="rgb(66,67,73)" stroke="rgb(66,67,73)" stroke-width="1" opacity="0.7568627450980392" d="M 33.5 139 L 34.5 141 L 33.5 139 Z " /><path fill="rgb(66,67,73)" stroke="rgb(66,67,73)" stroke-width="1" opacity="0.7568627450980392" d="M 40.5 142 L 48 142.5 L 40.5 143 L 40.5 142 Z " /><path fill="rgb(66,67,73)" stroke="rgb(66,67,73)" stroke-width="1" opacity="0.7568627450980392" d="M 89.5 142 L 90 144.5 L 89 144.5 L 89.5 142 Z " /><path fill="rgb(66,67,73)" stroke="rgb(66,67,73)" stroke-width="1" opacity="0.7568627450980392" d="M 121.5 142 L 130 142.5 L 121.5 143 L 120.5 144 L 121.5 142 Z " /><path fill="rgb(66,67,73)" stroke="rgb(66,67,73)" stroke-width="1" opacity="0.7568627450980392" d="M 77.5 147 L 75.5 150 L 77.5 147 Z " /><path fill="rgb(66,67,73)" stroke="rgb(66,67,73)" stroke-width="1" opacity="0.7568627450980392" d="M 118.5 147 L 114.5 152 L 118.5 147 Z " /><path fill="rgb(66,67,73)" stroke="rgb(66,67,73)" stroke-width="1" opacity="0.7568627450980392" d="M 91.5 148 L 94.5 152 L 91.5 148 Z " /><path fill="rgb(66,67,73)" stroke="rgb(66,67,73)" stroke-width="1" opacity="0.7568627450980392" d="M 54.5 151 L 55.5 153 L 54.5 151 Z " /><path fill="rgb(66,67,73)" stroke="rgb(66,67,73)" stroke-width="1" opacity="0.7568627450980392" d="M 101.5 154 L 108 154.5 L 101.5 155 L 101.5 154 Z " /><path fill="rgb(15,18,27)" stroke="rgb(15,18,27)" stroke-width="1" opacity="0.996078431372549" d="M 61.5 6 L 62 8 L 60 7.5 L 61.5 6 Z " /><path fill="rgb(15,18,27)" stroke="rgb(15,18,27)" stroke-width="1" opacity="0.996078431372549" d="M 66 6 L 68 6.5 L 66 7.5 L 66 6 Z " /><path fill="rgb(15,18,27)" stroke="rgb(15,18,27)" stroke-width="1" opacity="0.996078431372549" d="M 101.5 6 L 102.5 8 L 103 6 L 109 6.5 L 105.5 8 Q 102.9 7.3 104 10 L 101 10 L 101.5 6 Z " /><path fill="rgb(15,18,27)" stroke="rgb(15,18,27)" stroke-width="1" opacity="0.996078431372549" d="M 72.5 8 Q 74.8 7.3 74 9.5 L 72.5 8 Z " /><path fill="rgb(15,18,27)" stroke="rgb(15,18,27)" stroke-width="1" opacity="0.996078431372549" d="M 112 8 L 114 8.5 L 112 9.5 L 112 8 Z " /><path fill="rgb(15,18,27)" stroke="rgb(15,18,27)" stroke-width="1" opacity="0.996078431372549" d="M 53.5 9 Q 56.1 8.2 55 11.5 L 55.5 13 L 53 12.5 L 54 10.5 L 52 10.5 L 53.5 9 Z " /><path fill="rgb(15,18,27)" stroke="rgb(15,18,27)" stroke-width="1" opacity="0.996078431372549" d="M 72.5 11 L 73.5 13 L 75.5 12 L 75.5 13 L 73.5 14 L 72.5 11 Z " /><path fill="rgb(15,18,27)" stroke="rgb(15,18,27)" stroke-width="1" opacity="0.996078431372549" d="M 114.5 11 Q 117.3 12.3 115 13.5 L 115.5 15 L 117.5 15 Q 120.1 14.2 119 17.5 L 120 19.5 L 118 18.5 Q 119.1 15.2 116.5 16 L 115 16.5 Q 115.8 14.3 113.5 15 L 114 13.5 L 114.5 11 Z " /><path fill="rgb(15,18,27)" stroke="rgb(15,18,27)" stroke-width="1" opacity="0.996078431372549" d="M 51.5 12 L 51.5 14 L 53 14.5 L 51.5 15 Q 48.5 13.5 51.5 12 Z " /><path fill="rgb(15,18,27)" stroke="rgb(15,18,27)" stroke-width="1" opacity="0.996078431372549" d="M 94.5 14 L 95.5 16 L 94 15.5 L 93.5 20 L 92 15.5 L 94.5 14 Z " /><path fill="rgb(15,18,27)" stroke="rgb(15,18,27)" stroke-width="1" opacity="0.996078431372549" d="M 49.5 15 L 52 16 L 53 18.5 L 51.5 19 L 50 18.5 L 48.5 21 L 49 19.5 L 50 16.5 L 49.5 15 Z " /><path fill="rgb(15,18,27)" stroke="rgb(15,18,27)" stroke-width="1" opacity="0.996078431372549" d="M 54.5 15 L 55 17 L 53 16.5 L 54.5 15 Z " /><path fill="rgb(15,18,27)" stroke="rgb(15,18,27)" stroke-width="1" opacity="0.996078431372549" d="M 103.5 15 L 112 15.5 L 103.5 16 L 103.5 15 Z " /><path fill="rgb(15,18,27)" stroke="rgb(15,18,27)" stroke-width="1" opacity="0.996078431372549" d="M 73.5 17 L 74 21.5 L 73 21.5 L 73.5 17 Z " /><path fill="rgb(15,18,27)" stroke="rgb(15,18,27)" stroke-width="1" opacity="0.996078431372549" d="M 116.5 19 L 117 21.5 L 116 21.5 L 116.5 19 Z " /><path fill="rgb(15,18,27)" stroke="rgb(15,18,27)" stroke-width="1" opacity="0.996078431372549" d="M 75.5 20 L 78 24.5 L 78 55.5 L 77 55.5 L 77 24.5 L 75.5 24 L 75 21.5 L 75.5 20 Z " /><path fill="rgb(15,18,27)" stroke="rgb(15,18,27)" stroke-width="1" opacity="0.996078431372549" d="M 120.5 22 L 123 22.5 Q 123.8 24.8 121.5 24 L 120.5 22 Z " /><path fill="rgb(15,18,27)" stroke="rgb(15,18,27)" stroke-width="1" opacity="0.996078431372549" d="M 43.5 23 L 45 23.5 L 44 26 L 40 24.5 L 43.5 23 Z " /><path fill="rgb(15,18,27)" stroke="rgb(15,18,27)" stroke-width="1" opacity="0.996078431372549" d="M 125.5 23 L 128 26.5 L 126 25.5 L 125.5 23 Z " /><path fill="rgb(15,18,27)" stroke="rgb(15,18,27)" stroke-width="1" opacity="0.996078431372549" d="M 131.5 27 L 132.5 29 L 131.5 27 Z " /><path fill="rgb(15,18,27)" stroke="rgb(15,18,27)" stroke-width="1" opacity="0.996078431372549" d="M 129.5 28 L 132.5 32 L 129.5 28 Z " /><path fill="rgb(15,18,27)" stroke="rgb(15,18,27)" stroke-width="1" opacity="0.996078431372549" d="M 37.5 29 L 38.5 31 L 40 30.5 L 38.5 33 L 37.5 29 Z " /><path fill="rgb(15,18,27)" stroke="rgb(15,18,27)" stroke-width="1" opacity="0.996078431372549" d="M 91.5 32 L 92 34.5 L 91 35.5 L 90.5 49 L 90 35.5 L 91.5 32 Z " /><path fill="rgb(15,18,27)" stroke="rgb(15,18,27)" stroke-width="1" opacity="0.996078431372549" d="M 35.5 33 Q 37.8 32.3 37 34.5 L 37.5 36 L 35.5 33 Z " /><path fill="rgb(15,18,27)" stroke="rgb(15,18,27)" stroke-width="1" opacity="0.996078431372549" d="M 134.5 33 L 136 35.5 L 134 34.5 L 134.5 33 Z " /><path fill="rgb(15,18,27)" stroke="rgb(15,18,27)" stroke-width="1" opacity="0.996078431372549" d="M 129.5 36 L 130.5 38 Q 127.7 38.7 129.5 36 Z " /><path fill="rgb(15,18,27)" stroke="rgb(15,18,27)" stroke-width="1" opacity="0.996078431372549" d="M 34.5 37 Q 37.5 36.1 36 40.5 L 35 40.5 L 34.5 37 Z " /><path fill="rgb(15,18,27)" stroke="rgb(15,18,27)" stroke-width="1" opacity="0.996078431372549" d="M 134.5 37 L 134.5 40 Q 131.5 38.5 134.5 37 Z " /><path fill="rgb(15,18,27)" stroke="rgb(15,18,27)" stroke-width="1" opacity="0.996078431372549" d="M 32.5 41 Q 35.1 40.2 34 43.5 L 35 45.5 L 32 47.5 L 33 42.5 L 32.5 41 Z " /><path fill="rgb(15,18,27)" stroke="rgb(15,18,27)" stroke-width="1" opacity="0.996078431372549" d="M 134 41 Q 137.7 39.6 136 45.5 L 137 48.5 L 136 48.5 L 136 47 L 134 46.5 L 134 41 Z " /><path fill="rgb(15,18,27)" stroke="rgb(15,18,27)" stroke-width="1" opacity="0.996078431372549" d="M 38.5 43 L 39 45.5 L 38 45.5 L 38.5 43 Z " /><path fill="rgb(15,18,27)" stroke="rgb(15,18,27)" stroke-width="1" opacity="0.996078431372549" d="M 28.5 47 L 32 49.5 L 30.5 49 L 28.5 47 Z " /><path fill="rgb(15,18,27)" stroke="rgb(15,18,27)" stroke-width="1" opacity="0.996078431372549" d="M 139.5 47 L 142 50.5 L 140 51 Q 138.9 53.7 141.5 53 L 144 54.5 L 141.5 56 L 138.5 52 Q 137.3 54.3 136 51.5 L 138 51.5 L 139 49.5 Q 136.8 48.2 139.5 47 Z " /><path fill="rgb(15,18,27)" stroke="rgb(15,18,27)" stroke-width="1" opacity="0.996078431372549" d="M 143.5 50 L 146 51.5 L 144.5 52 L 143.5 50 Z " /><path fill="rgb(15,18,27)" stroke="rgb(15,18,27)" stroke-width="1" opacity="0.996078431372549" d="M 24.5 52 L 27 52.5 L 24 53.5 L 24.5 55 L 22 53.5 L 24.5 52 Z " /><path fill="rgb(15,18,27)" stroke="rgb(15,18,27)" stroke-width="1" opacity="0.996078431372549" d="M 145.5 53 L 148 54.5 L 146 55.5 L 147 57.5 L 145 56.5 L 145.5 53 Z " /><path fill="rgb(15,18,27)" stroke="rgb(15,18,27)" stroke-width="1" opacity="0.996078431372549" d="M 136.5 54 L 139 55.5 L 137.5 56 L 136.5 54 Z " /><path fill="rgb(15,18,27)" stroke="rgb(15,18,27)" stroke-width="1" opacity="0.996078431372549" d="M 20.5 56 L 22 56.5 L 20 57 L 20.5 59 L 22 58.5 L 23 62.5 L 22 65 L 20 65.5 L 20 67.5 Q 19.3 70.1 22 69 L 22 71 Q 19 69.8 20 73.5 L 19 73.5 L 19 68.5 L 17 68 L 17 65.5 L 17 63.5 L 20.5 56 Z M 19 61 L 18 63 L 20 64 L 19 61 Z " /><path fill="rgb(15,18,27)" stroke="rgb(15,18,27)" stroke-width="1" opacity="0.996078431372549" d="M 148.5 58 L 148 59.5 L 146.5 64 L 146 62.5 L 148.5 58 Z " /><path fill="rgb(15,18,27)" stroke="rgb(15,18,27)" stroke-width="1" opacity="0.996078431372549" d="M 145.5 59 L 144.5 61 L 145.5 59 Z " /><path fill="rgb(15,18,27)" stroke="rgb(15,18,27)" stroke-width="1" opacity="0.996078431372549" d="M 148.5 64 L 150 67.5 L 148 66.5 L 148.5 64 Z " /><path fill="rgb(15,18,27)" stroke="rgb(15,18,27)" stroke-width="1" opacity="0.996078431372549" d="M 149.5 69 L 151 69.5 L 150 72.5 L 148.5 75 L 146.5 72 L 149 73.5 L 148 70.5 L 149.5 69 Z " /><path fill="rgb(15,18,27)" stroke="rgb(15,18,27)" stroke-width="1" opacity="0.996078431372549" d="M 22.5 72 Q 25.5 73.5 22.5 75 Q 19.5 73.5 22.5 72 Z " /><path fill="rgb(15,18,27)" stroke="rgb(15,18,27)" stroke-width="1" opacity="0.996078431372549" d="M 21.5 76 L 23 81.5 L 22 81.5 L 21.5 76 Z " /><path fill="rgb(15,18,27)" stroke="rgb(15,18,27)" stroke-width="1" opacity="0.996078431372549" d="M 147.5 76 L 149.5 80 L 151 79.5 L 152 83 L 154 83.5 L 152.5 84 L 147.5 78 L 144.5 80 L 147.5 76 Z " /><path fill="rgb(15,18,27)" stroke="rgb(15,18,27)" stroke-width="1" opacity="0.996078431372549" d="M 19.5 79 L 20.5 81 L 18.5 81 L 16.5 82 L 17.5 80 L 19.5 79 Z " /><path fill="rgb(15,18,27)" stroke="rgb(15,18,27)" stroke-width="1" opacity="0.996078431372549" d="M 19.5 82 L 20.5 84 L 22.5 83 L 21.5 86 L 23.5 85 L 23 86.5 L 22.5 88 L 20 84 L 18 83.5 L 19.5 82 Z " /><path fill="rgb(15,18,27)" stroke="rgb(15,18,27)" stroke-width="1" opacity="0.996078431372549" d="M 152.5 85 Q 154.8 84.3 154 86.5 L 152.5 85 Z " /><path fill="rgb(15,18,27)" stroke="rgb(15,18,27)" stroke-width="1" opacity="0.996078431372549" d="M 16.5 86 L 15.5 88 L 16.5 86 Z " /><path fill="rgb(15,18,27)" stroke="rgb(15,18,27)" stroke-width="1" opacity="0.996078431372549" d="M 18.5 86 L 19.5 88 L 18.5 86 Z " /><path fill="rgb(15,18,27)" stroke="rgb(15,18,27)" stroke-width="1" opacity="0.996078431372549" d="M 12.5 88 L 16 92.5 L 13 90.5 L 12.5 88 Z " /><path fill="rgb(15,18,27)" stroke="rgb(15,18,27)" stroke-width="1" opacity="0.996078431372549" d="M 11.5 92 L 13 92.5 L 10.5 94 L 11.5 92 Z " /><path fill="rgb(15,18,27)" stroke="rgb(15,18,27)" stroke-width="1" opacity="0.996078431372549" d="M 153.5 94 L 156 94.5 L 153.5 95 L 153.5 94 Z " /><path fill="rgb(15,18,27)" stroke="rgb(15,18,27)" stroke-width="1" opacity="0.996078431372549" d="M 15.5 96 L 14.5 98 L 15.5 96 Z " /><path fill="rgb(15,18,27)" stroke="rgb(15,18,27)" stroke-width="1" opacity="0.996078431372549" d="M 11.5 99 Q 14.1 98.3 13 101 L 15 101 L 15.5 99 L 16 100.5 L 14.5 103 L 11.5 99 Z " /><path fill="rgb(15,18,27)" stroke="rgb(15,18,27)" stroke-width="1" opacity="0.996078431372549" d="M 76.5 105 L 77 110.5 L 76 110.5 L 76.5 105 Z " /><path fill="rgb(15,18,27)" stroke="rgb(15,18,27)" stroke-width="1" opacity="0.996078431372549" d="M 15.5 109 L 19 110.5 L 18.5 112 L 15.5 109 Z " /><path fill="rgb(15,18,27)" stroke="rgb(15,18,27)" stroke-width="1" opacity="0.996078431372549" d="M 151.5 109 L 154 109.5 L 150 112.5 L 149.5 114 L 149 112.5 L 151.5 109 Z " /><path fill="rgb(15,18,27)" stroke="rgb(15,18,27)" stroke-width="1" opacity="0.996078431372549" d="M 22.5 111 L 25 112.5 L 23.5 113 L 22.5 111 Z " /><path fill="rgb(15,18,27)" stroke="rgb(15,18,27)" stroke-width="1" opacity="0.996078431372549" d="M 20.5 112 L 19.5 114 L 20.5 112 Z " /><path fill="rgb(15,18,27)" stroke="rgb(15,18,27)" stroke-width="1" opacity="0.996078431372549" d="M 137.5 112 L 139 112.5 L 137 113 L 136.5 115 L 136 113.5 L 137.5 112 Z " /><path fill="rgb(15,18,27)" stroke="rgb(15,18,27)" stroke-width="1" opacity="0.996078431372549" d="M 141.5 112 L 143 112.5 L 137.5 117 L 141.5 112 Z " /><path fill="rgb(15,18,27)" stroke="rgb(15,18,27)" stroke-width="1" opacity="0.996078431372549" d="M 23 114 L 26 115.5 L 23 116 L 23 114 Z " /><path fill="rgb(15,18,27)" stroke="rgb(15,18,27)" stroke-width="1" opacity="0.996078431372549" d="M 143.5 114 L 143.5 117 Q 141.3 116.3 142 118.5 Q 144.3 119.8 141.5 121 L 141.5 119 L 139 120.5 L 138.5 128 L 138 119 Q 140.7 120.1 140 117.5 L 143.5 114 Z " /><path fill="rgb(15,18,27)" stroke="rgb(15,18,27)" stroke-width="1" opacity="0.996078431372549" d="M 27.5 117 L 30 118.5 L 28.5 119 L 27.5 117 Z " /><path fill="rgb(15,18,27)" stroke="rgb(15,18,27)" stroke-width="1" opacity="0.996078431372549" d="M 27.5 120 L 28 124.5 L 27 124.5 L 27.5 120 Z " /><path fill="rgb(15,18,27)" stroke="rgb(15,18,27)" stroke-width="1" opacity="0.996078431372549" d="M 73.5 120 L 74 127.5 L 73 127.5 L 73.5 120 Z " /><path fill="rgb(15,18,27)" stroke="rgb(15,18,27)" stroke-width="1" opacity="0.996078431372549" d="M 26.5 127 L 31 129.5 L 27.5 132 L 27.5 128 L 26.5 127 Z " /><path fill="rgb(15,18,27)" stroke="rgb(15,18,27)" stroke-width="1" opacity="0.996078431372549" d="M 90.5 127 L 91 135.5 L 93 140.5 L 92 140.5 L 90 136.5 L 90.5 127 Z " /><path fill="rgb(15,18,27)" stroke="rgb(15,18,27)" stroke-width="1" opacity="0.996078431372549" d="M 143.5 127 L 144 129 L 141.5 130 L 143.5 127 Z " /><path fill="rgb(15,18,27)" stroke="rgb(15,18,27)" stroke-width="1" opacity="0.996078431372549" d="M 128 129 Q 131 128 130 131 Q 127 132 128 129 Z " /><path fill="rgb(15,18,27)" stroke="rgb(15,18,27)" stroke-width="1" opacity="0.996078431372549" d="M 136.5 131 Q 138.8 130.3 138 132.5 L 136 133.5 L 136.5 131 Z " /><path fill="rgb(15,18,27)" stroke="rgb(15,18,27)" stroke-width="1" opacity="0.996078431372549" d="M 140.5 131 L 142 131.5 L 139.5 135 L 139 132.5 L 140.5 131 Z " /><path fill="rgb(15,18,27)" stroke="rgb(15,18,27)" stroke-width="1" opacity="0.996078431372549" d="M 34.5 136 L 36.5 136 L 39.5 139 L 45 140.5 L 42.5 142 L 42 140 L 34 138 L 34.5 136 Z " /><path fill="rgb(15,18,27)" stroke="rgb(15,18,27)" stroke-width="1" opacity="0.996078431372549" d="M 137.5 136 L 139 136.5 L 137 137 L 136.5 139 L 136 137.5 L 137.5 136 Z " /><path fill="rgb(15,18,27)" stroke="rgb(15,18,27)" stroke-width="1" opacity="0.996078431372549" d="M 132.5 137 L 134 139.5 L 132 138.5 L 132.5 137 Z " /><path fill="rgb(15,18,27)" stroke="rgb(15,18,27)" stroke-width="1" opacity="0.996078431372549" d="M 129.5 138 L 131.5 141 L 129.5 138 Z " /><path fill="rgb(15,18,27)" stroke="rgb(15,18,27)" stroke-width="1" opacity="0.996078431372549" d="M 122.5 139 L 125 140.5 L 123 141.5 L 123.5 140 L 122.5 139 Z " /><path fill="rgb(15,18,27)" stroke="rgb(15,18,27)" stroke-width="1" opacity="0.996078431372549" d="M 120.5 140 L 121 141.5 L 119 142.5 L 120.5 140 Z " /><path fill="rgb(15,18,27)" stroke="rgb(15,18,27)" stroke-width="1" opacity="0.996078431372549" d="M 90.5 141 Q 93.5 142.5 90.5 144 L 90.5 141 Z " /><path fill="rgb(15,18,27)" stroke="rgb(15,18,27)" stroke-width="1" opacity="0.996078431372549" d="M 93.5 142 L 95 147.5 L 92.5 148 L 93 146.5 L 93.5 142 Z " /><path fill="rgb(15,18,27)" stroke="rgb(15,18,27)" stroke-width="1" opacity="0.996078431372549" d="M 50.5 143 L 52 143.5 L 49.5 145 L 50.5 143 Z " /><path fill="rgb(15,18,27)" stroke="rgb(15,18,27)" stroke-width="1" opacity="0.996078431372549" d="M 112.5 144 L 113.5 146 L 112.5 144 Z " /><path fill="rgb(15,18,27)" stroke="rgb(15,18,27)" stroke-width="1" opacity="0.996078431372549" d="M 118.5 144 L 119 146 L 117 145.5 L 118.5 144 Z " /><path fill="rgb(15,18,27)" stroke="rgb(15,18,27)" stroke-width="1" opacity="0.996078431372549" d="M 72.5 145 L 75 146.5 Q 76.1 149.8 73.5 149 L 74 147.5 Q 74.8 145.3 72.5 146 L 72.5 145 Z " /><path fill="rgb(15,18,27)" stroke="rgb(15,18,27)" stroke-width="1" opacity="0.996078431372549" d="M 54.5 146 L 53.5 148 L 54.5 146 Z " /><path fill="rgb(15,18,27)" stroke="rgb(15,18,27)" stroke-width="1" opacity="0.996078431372549" d="M 113.5 147 L 113 148.5 L 112 152 Q 107.9 153.3 109 150 L 113.5 147 Z " /><path fill="rgb(15,18,27)" stroke="rgb(15,18,27)" stroke-width="1" opacity="0.996078431372549" d="M 115.5 147 L 118 147.5 L 115.5 148 L 115.5 147 Z " /><path fill="rgb(15,18,27)" stroke="rgb(15,18,27)" stroke-width="1" opacity="0.996078431372549" d="M 55.5 148 L 54.5 150 L 53 149.5 L 55.5 148 Z " /><path fill="rgb(15,18,27)" stroke="rgb(15,18,27)" stroke-width="1" opacity="0.996078431372549" d="M 96 150 L 101 150.5 L 99.5 153 L 96 152 L 96 150 Z " /><path fill="rgb(9,11,18)" stroke="rgb(9,11,18)" stroke-width="1" opacity="0.9921568627450981" d="M 61.5 5 L 67 5.5 Q 60.8 5.3 57.5 8 L 58.5 6 L 61.5 5 Z " /><path fill="rgb(9,11,18)" stroke="rgb(9,11,18)" stroke-width="1" opacity="0.9921568627450981" d="M 101.5 5 L 108 5.5 Q 101.3 4.8 98.5 8 L 99.5 6 L 101.5 5 Z " /><path fill="rgb(9,11,18)" stroke="rgb(9,11,18)" stroke-width="1" opacity="0.9921568627450981" d="M 109.5 6 L 110.5 8 L 109.5 6 Z " /><path fill="rgb(9,11,18)" stroke="rgb(9,11,18)" stroke-width="1" opacity="0.9921568627450981" d="M 95.5 8 L 93.5 11 L 95.5 8 Z " /><path fill="rgb(9,11,18)" stroke="rgb(9,11,18)" stroke-width="1" opacity="0.9921568627450981" d="M 114.5 9 L 118 12.5 L 116.5 14 Q 118.2 12 114.5 10 L 113 10.5 L 114.5 9 Z " /><path fill="rgb(9,11,18)" stroke="rgb(9,11,18)" stroke-width="1" opacity="0.9921568627450981" d="M 74.5 10 L 77.5 14 L 74.5 10 Z " /><path fill="rgb(9,11,18)" stroke="rgb(9,11,18)" stroke-width="1" opacity="0.9921568627450981" d="M 91.5 13 L 93 13.5 L 90.5 15 L 91.5 13 Z " /><path fill="rgb(9,11,18)" stroke="rgb(9,11,18)" stroke-width="1" opacity="0.9921568627450981" d="M 118.5 14 L 120 17.5 L 119 17.5 L 118.5 14 Z " /><path fill="rgb(9,11,18)" stroke="rgb(9,11,18)" stroke-width="1" opacity="0.9921568627450981" d="M 78.5 17 L 79 143.5 L 78 143.5 L 78.5 17 Z " /><path fill="rgb(9,11,18)" stroke="rgb(9,11,18)" stroke-width="1" opacity="0.9921568627450981" d="M 126.5 23 L 127.5 25 L 126.5 23 Z " /><path fill="rgb(9,11,18)" stroke="rgb(9,11,18)" stroke-width="1" opacity="0.9921568627450981" d="M 39.5 25 L 39.5 28 Q 36.5 26.5 39.5 25 Z " /><path fill="rgb(9,11,18)" stroke="rgb(9,11,18)" stroke-width="1" opacity="0.9921568627450981" d="M 129.5 25 L 130.5 27 L 129.5 25 Z " /><path fill="rgb(9,11,18)" stroke="rgb(9,11,18)" stroke-width="1" opacity="0.9921568627450981" d="M 36.5 28 L 36.5 31 Q 33.5 29.5 36.5 28 Z " /><path fill="rgb(9,11,18)" stroke="rgb(9,11,18)" stroke-width="1" opacity="0.9921568627450981" d="M 134.5 31 L 133.5 33 L 134.5 31 Z " /><path fill="rgb(9,11,18)" stroke="rgb(9,11,18)" stroke-width="1" opacity="0.9921568627450981" d="M 135 36 Q 138.5 34.9 137 42.5 L 136 42.5 L 135 36 Z " /><path fill="rgb(9,11,18)" stroke="rgb(9,11,18)" stroke-width="1" opacity="0.9921568627450981" d="M 31.5 46 L 30.5 48 L 31.5 46 Z " /><path fill="rgb(9,11,18)" stroke="rgb(9,11,18)" stroke-width="1" opacity="0.9921568627450981" d="M 27.5 48 L 25.5 51 L 22 53.5 L 20.5 56 L 21 54.5 L 24.5 50 L 27.5 48 Z " /><path fill="rgb(9,11,18)" stroke="rgb(9,11,18)" stroke-width="1" opacity="0.9921568627450981" d="M 141.5 48 L 145 50.5 L 143.5 50 L 141.5 48 Z " /><path fill="rgb(9,11,18)" stroke="rgb(9,11,18)" stroke-width="1" opacity="0.9921568627450981" d="M 143.5 52 L 144.5 54 L 143.5 52 Z " /><path fill="rgb(9,11,18)" stroke="rgb(9,11,18)" stroke-width="1" opacity="0.9921568627450981" d="M 148.5 56 Q 150.8 55.3 150 57.5 L 150.5 59 L 148.5 56 Z " /><path fill="rgb(9,11,18)" stroke="rgb(9,11,18)" stroke-width="1" opacity="0.9921568627450981" d="M 18.5 61 L 19.5 63 Q 16.7 63.7 18.5 61 Z " /><path fill="rgb(9,11,18)" stroke="rgb(9,11,18)" stroke-width="1" opacity="0.9921568627450981" d="M 150.5 61 Q 153.3 62.3 152 67.5 L 151 67.5 L 150.5 61 Z " /><path fill="rgb(9,11,18)" stroke="rgb(9,11,18)" stroke-width="1" opacity="0.9921568627450981" d="M 148.5 62 L 149.5 64 L 148.5 62 Z " /><path fill="rgb(9,11,18)" stroke="rgb(9,11,18)" stroke-width="1" opacity="0.9921568627450981" d="M 17.5 68 Q 20.5 67.1 19 71.5 L 18 71.5 L 17.5 68 Z " /><path fill="rgb(9,11,18)" stroke="rgb(9,11,18)" stroke-width="1" opacity="0.9921568627450981" d="M 146.5 74 L 147.5 76 L 146.5 74 Z " /><path fill="rgb(9,11,18)" stroke="rgb(9,11,18)" stroke-width="1" opacity="0.9921568627450981" d="M 151.5 80 L 153.5 83 L 151.5 80 Z " /><path fill="rgb(9,11,18)" stroke="rgb(9,11,18)" stroke-width="1" opacity="0.9921568627450981" d="M 155.5 86 L 157 86.5 L 154.5 88 L 155.5 86 Z " /><path fill="rgb(9,11,18)" stroke="rgb(9,11,18)" stroke-width="1" opacity="0.9921568627450981" d="M 158.5 97 L 159 100.5 L 156.5 102 L 156.5 101 L 158 101 L 158.5 97 Z " /><path fill="rgb(9,11,18)" stroke="rgb(9,11,18)" stroke-width="1" opacity="0.9921568627450981" d="M 13.5 103 L 13.5 106 Q 10.5 104.5 13.5 103 Z " /><path fill="rgb(9,11,18)" stroke="rgb(9,11,18)" stroke-width="1" opacity="0.9921568627450981" d="M 156.5 105 L 157 106.5 L 154 108.5 L 154.5 107 L 153 106.5 L 154.5 106 L 156 106.5 L 156.5 105 Z " /><path fill="rgb(9,11,18)" stroke="rgb(9,11,18)" stroke-width="1" opacity="0.9921568627450981" d="M 14.5 107 L 15.5 109 Q 12.7 109.7 14.5 107 Z " /><path fill="rgb(9,11,18)" stroke="rgb(9,11,18)" stroke-width="1" opacity="0.9921568627450981" d="M 151.5 111 L 150.5 113 L 151.5 111 Z " /><path fill="rgb(9,11,18)" stroke="rgb(9,11,18)" stroke-width="1" opacity="0.9921568627450981" d="M 20.5 113 L 21.5 115 L 20.5 113 Z " /><path fill="rgb(9,11,18)" stroke="rgb(9,11,18)" stroke-width="1" opacity="0.9921568627450981" d="M 148.5 113 L 147.5 115 L 148.5 113 Z " /><path fill="rgb(9,11,18)" stroke="rgb(9,11,18)" stroke-width="1" opacity="0.9921568627450981" d="M 143.5 115 L 146 115.5 L 143.5 116 L 143.5 115 Z " /><path fill="rgb(9,11,18)" stroke="rgb(9,11,18)" stroke-width="1" opacity="0.9921568627450981" d="M 143.5 119 L 144 126.5 L 143 126.5 L 143.5 119 Z " /><path fill="rgb(9,11,18)" stroke="rgb(9,11,18)" stroke-width="1" opacity="0.9921568627450981" d="M 138.5 134 L 141 134.5 L 139.5 136 L 137 135.5 L 138.5 134 Z " /><path fill="rgb(9,11,18)" stroke="rgb(9,11,18)" stroke-width="1" opacity="0.9921568627450981" d="M 31.5 137 L 34 137.5 L 31.5 138 L 31.5 137 Z " /><path fill="rgb(9,11,18)" stroke="rgb(9,11,18)" stroke-width="1" opacity="0.9921568627450981" d="M 35.5 138 L 35.5 140 L 37.5 139 L 36.5 141 L 34 139.5 L 35.5 138 Z " /><path fill="rgb(9,11,18)" stroke="rgb(9,11,18)" stroke-width="1" opacity="0.9921568627450981" d="M 134.5 139 L 133.5 141 L 132 140.5 L 134.5 139 Z " /><path fill="rgb(9,11,18)" stroke="rgb(9,11,18)" stroke-width="1" opacity="0.9921568627450981" d="M 46.5 140 L 47.5 142 L 46.5 140 Z " /><path fill="rgb(9,11,18)" stroke="rgb(9,11,18)" stroke-width="1" opacity="0.9921568627450981" d="M 121.5 140 L 122.5 142 Q 119.7 142.7 121.5 140 Z " /><path fill="rgb(9,11,18)" stroke="rgb(9,11,18)" stroke-width="1" opacity="0.9921568627450981" d="M 77.5 145 L 78 146.5 L 74 149.5 L 75 147 Q 77.8 148 77.5 145 Z " /><path fill="rgb(9,11,18)" stroke="rgb(9,11,18)" stroke-width="1" opacity="0.9921568627450981" d="M 93.5 148 L 95 150.5 L 93 149.5 L 93.5 148 Z " /><path fill="rgb(9,11,18)" stroke="rgb(9,11,18)" stroke-width="1" opacity="0.9921568627450981" d="M 114.5 148 L 117 148.5 L 114 150.5 L 114.5 148 Z " /><path fill="rgb(9,11,18)" stroke="rgb(9,11,18)" stroke-width="1" opacity="0.9921568627450981" d="M 54.5 150 L 55.5 152 L 54.5 150 Z " /><path fill="rgb(9,11,18)" stroke="rgb(9,11,18)" stroke-width="1" opacity="0.9921568627450981" d="M 112.5 151 L 111.5 153 Q 107.7 155.7 99.5 154 L 98.5 152 L 99.5 153 L 109.5 153 L 112.5 151 Z " /><path fill="rgb(9,11,18)" stroke="rgb(9,11,18)" stroke-width="1" opacity="0.9921568627450981" d="M 69.5 152 L 71 152.5 Q 67.7 155.7 59.5 154 L 59.5 153 L 68.5 153 L 69.5 152 Z " /><path fill="rgb(197,198,201)" stroke="rgb(197,198,201)" stroke-width="1" opacity="0.1607843137254902" d="M 55.5 6 L 57 6.5 L 54.5 8 L 55.5 6 Z " /><path fill="rgb(197,198,201)" stroke="rgb(197,198,201)" stroke-width="1" opacity="0.1607843137254902" d="M 71.5 6 L 79 12.5 L 80 16.5 L 79 16.5 Q 78.2 9.3 72.5 7 L 71.5 6 Z " /><path fill="rgb(197,198,201)" stroke="rgb(197,198,201)" stroke-width="1" opacity="0.1607843137254902" d="M 96.5 6 L 95.5 8 L 94 7.5 L 96.5 6 Z " /><path fill="rgb(197,198,201)" stroke="rgb(197,198,201)" stroke-width="1" opacity="0.1607843137254902" d="M 112.5 6 L 119 11.5 L 114.5 8 L 112.5 6 Z " /><path fill="rgb(197,198,201)" stroke="rgb(197,198,201)" stroke-width="1" opacity="0.1607843137254902" d="M 92.5 9 L 91.5 11 L 92.5 9 Z " /><path fill="rgb(197,198,201)" stroke="rgb(197,198,201)" stroke-width="1" opacity="0.1607843137254902" d="M 49.5 12 L 49 13.5 L 48.5 15 L 48 13.5 L 49.5 12 Z " /><path fill="rgb(197,198,201)" stroke="rgb(197,198,201)" stroke-width="1" opacity="0.1607843137254902" d="M 90.5 12 L 90 13.5 L 89.5 15 L 89 13.5 L 90.5 12 Z " /><path fill="rgb(197,198,201)" stroke="rgb(197,198,201)" stroke-width="1" opacity="0.1607843137254902" d="M 120.5 15 L 122 20.5 L 121 20.5 L 120.5 15 Z " /><path fill="rgb(197,198,201)" stroke="rgb(197,198,201)" stroke-width="1" opacity="0.1607843137254902" d="M 88.5 16 L 89 143.5 L 88 143.5 L 88.5 16 Z " /><path fill="rgb(197,198,201)" stroke="rgb(197,198,201)" stroke-width="1" opacity="0.1607843137254902" d="M 41.5 22 L 43 22.5 L 34 29.5 L 31.5 37 L 31 33.5 L 39.5 23 L 41.5 22 Z " /><path fill="rgb(197,198,201)" stroke="rgb(197,198,201)" stroke-width="1" opacity="0.1607843137254902" d="M 126.5 22 Q 132.6 23.4 135 28.5 L 129.5 24 Q 125.7 23.8 126.5 22 Z " /><path fill="rgb(197,198,201)" stroke="rgb(197,198,201)" stroke-width="1" opacity="0.1607843137254902" d="M 136.5 32 L 138 34.5 L 138 44.5 L 139 45.5 L 137 46 L 137 34.5 L 136.5 32 Z " /><path fill="rgb(197,198,201)" stroke="rgb(197,198,201)" stroke-width="1" opacity="0.1607843137254902" d="M 31.5 42 L 32 46 L 26.5 48 L 27.5 46 L 31 45 L 31.5 42 Z " /><path fill="rgb(197,198,201)" stroke="rgb(197,198,201)" stroke-width="1" opacity="0.1607843137254902" d="M 142.5 47 L 143.5 49 L 142.5 47 Z " /><path fill="rgb(197,198,201)" stroke="rgb(197,198,201)" stroke-width="1" opacity="0.1607843137254902" d="M 24.5 48 L 19.5 54 L 24.5 48 Z " /><path fill="rgb(197,198,201)" stroke="rgb(197,198,201)" stroke-width="1" opacity="0.1607843137254902" d="M 145.5 49 Q 150.8 52.8 153 59.5 L 153 70.5 L 152 70.5 L 152 59.5 L 145.5 49 Z " /><path fill="rgb(197,198,201)" stroke="rgb(197,198,201)" stroke-width="1" opacity="0.1607843137254902" d="M 16.5 59 L 17 62.5 L 16 62.5 L 16.5 59 Z " /><path fill="rgb(197,198,201)" stroke="rgb(197,198,201)" stroke-width="1" opacity="0.1607843137254902" d="M 16.5 66 L 17 70.5 L 16 70.5 L 16.5 66 Z " /><path fill="rgb(197,198,201)" stroke="rgb(197,198,201)" stroke-width="1" opacity="0.1607843137254902" d="M 151.5 72 L 152 73.5 L 150 76.5 Q 156.3 80.8 159 88.5 L 158 88.5 Q 155.3 80.8 149 76.5 L 151.5 72 Z " /><path fill="rgb(197,198,201)" stroke="rgb(197,198,201)" stroke-width="1" opacity="0.1607843137254902" d="M 18.5 74 L 20 77.5 L 15.5 81 L 17.5 78 Q 19.8 78.8 19 76.5 L 18.5 74 Z " /><path fill="rgb(197,198,201)" stroke="rgb(197,198,201)" stroke-width="1" opacity="0.1607843137254902" d="M 13.5 82 L 14 83.5 L 12 84.5 L 13.5 82 Z " /><path fill="rgb(197,198,201)" stroke="rgb(197,198,201)" stroke-width="1" opacity="0.1607843137254902" d="M 159.5 90 L 160 92.5 L 159 92.5 L 159.5 90 Z " /><path fill="rgb(197,198,201)" stroke="rgb(197,198,201)" stroke-width="1" opacity="0.1607843137254902" d="M 9.5 91 L 10 101.5 L 9 101.5 L 9.5 91 Z " /><path fill="rgb(197,198,201)" stroke="rgb(197,198,201)" stroke-width="1" opacity="0.1607843137254902" d="M 160.5 94 L 161 98.5 L 159.5 103 L 159 99.5 L 160.5 94 Z " /><path fill="rgb(197,198,201)" stroke="rgb(197,198,201)" stroke-width="1" opacity="0.1607843137254902" d="M 158.5 104 L 159 105.5 L 151.5 114 L 156 108.5 L 158.5 104 Z " /><path fill="rgb(197,198,201)" stroke="rgb(197,198,201)" stroke-width="1" opacity="0.1607843137254902" d="M 13.5 109 L 17.5 114 L 13.5 109 Z " /><path fill="rgb(197,198,201)" stroke="rgb(197,198,201)" stroke-width="1" opacity="0.1607843137254902" d="M 19.5 114 L 20.5 116 L 19.5 114 Z " /><path fill="rgb(197,198,201)" stroke="rgb(197,198,201)" stroke-width="1" opacity="0.1607843137254902" d="M 149.5 114 L 148.5 116 L 149.5 114 Z " /><path fill="rgb(197,198,201)" stroke="rgb(197,198,201)" stroke-width="1" opacity="0.1607843137254902" d="M 144.5 117 Q 147.5 120 146 127.5 Q 143.8 135.8 137.5 140 L 142 134.5 Q 146.2 129.7 145 119.5 L 144.5 117 Z " /><path fill="rgb(197,198,201)" stroke="rgb(197,198,201)" stroke-width="1" opacity="0.1607843137254902" d="M 24.5 120 L 25 126.5 L 24 126.5 L 24.5 120 Z " /><path fill="rgb(197,198,201)" stroke="rgb(197,198,201)" stroke-width="1" opacity="0.1607843137254902" d="M 25.5 129 L 27 132.5 L 25 131.5 L 25.5 129 Z " /><path fill="rgb(197,198,201)" stroke="rgb(197,198,201)" stroke-width="1" opacity="0.1607843137254902" d="M 121.5 143 L 121 144.5 L 119.5 147 L 120 145.5 L 121.5 143 Z " /><path fill="rgb(197,198,201)" stroke="rgb(197,198,201)" stroke-width="1" opacity="0.1607843137254902" d="M 79.5 144 L 80 145.5 L 73.5 153 L 70.5 154 L 70.5 153 L 78 147.5 L 79.5 144 Z " /><path fill="rgb(197,198,201)" stroke="rgb(197,198,201)" stroke-width="1" opacity="0.1607843137254902" d="M 48.5 145 L 55 152.5 L 48 146.5 L 48.5 145 Z " /><path fill="rgb(197,198,201)" stroke="rgb(197,198,201)" stroke-width="1" opacity="0.1607843137254902" d="M 118.5 148 L 114.5 153 L 111.5 154 L 111.5 153 L 118.5 148 Z " /><path fill="rgb(17,21,31)" stroke="rgb(17,21,31)" stroke-width="1" opacity="1" d="M 62.5 6 L 63.5 8 L 64 6 L 66 6.5 L 65 8.5 Q 66.5 11.5 68 8.5 L 67.5 7 Q 70.1 6.2 69 9.5 L 68 14 Q 62.7 12.8 63.5 16 L 60 16 Q 58.8 12.3 64 14 L 64 10 Q 58.7 8.8 59.5 12 L 55.5 12 L 55.5 14 L 53 13.5 L 55 10 Q 59.1 11.3 58 8 L 62 8 L 62.5 6 Z " /><path fill="rgb(17,21,31)" stroke="rgb(17,21,31)" stroke-width="1" opacity="1" d="M 106.5 7 L 109.5 8 Q 114.1 6.7 112 12.5 L 112.5 14 L 103 15.5 L 107 16.5 L 102.5 17 L 100 16 L 99.5 14 L 96 16.5 L 98 13 L 94.5 12 L 94.5 14 L 93 11 Q 95.7 12.1 95 9.5 Q 96.4 6.8 101 8 Q 99.5 11.8 102.5 11 L 104 8 L 106.5 7 Z " /><path fill="rgb(17,21,31)" stroke="rgb(17,21,31)" stroke-width="1" opacity="1" d="M 53.5 10 L 52.5 12 L 53.5 10 Z " /><path fill="rgb(17,21,31)" stroke="rgb(17,21,31)" stroke-width="1" opacity="1" d="M 114.5 10 L 113.5 12 L 114.5 10 Z " /><path fill="rgb(17,21,31)" stroke="rgb(17,21,31)" stroke-width="1" opacity="1" d="M 115.5 13 L 116 14.5 L 114 15.5 L 115.5 13 Z " /><path fill="rgb(17,21,31)" stroke="rgb(17,21,31)" stroke-width="1" opacity="1" d="M 74.5 14 L 78 15.5 L 77 19.5 L 78 23.5 L 77 23.5 Q 77.8 19.3 75 18.5 L 77 18.5 L 76.5 15 Q 74.7 17.5 74.5 14 Z " /><path fill="rgb(17,21,31)" stroke="rgb(17,21,31)" stroke-width="1" opacity="1" d="M 91.5 15 Q 94.3 16.3 92 17.5 L 94 21.5 L 92 22.5 L 94 24.5 L 94 32 Q 89.5 30.5 91 35 Q 94 33.8 93 37.5 L 92 39.5 L 93 40.5 L 93 135.5 L 94 138.5 L 92 138.5 L 91.5 142 L 89 140.5 L 91 139.5 L 90 137.5 L 93 136.5 L 91 136 L 91 35.5 L 90 34.5 L 90 24.5 L 90 22.5 L 91 18.5 L 90 16.5 L 91.5 15 Z " /><path fill="rgb(17,21,31)" stroke="rgb(17,21,31)" stroke-width="1" opacity="1" d="M 116 16 L 118 16.5 Q 115.2 18.2 119.5 20 L 121 20.5 L 120 22.5 L 122.5 24 L 124.5 23 L 127 27.5 L 124.5 28 Q 122.5 24 120.5 28 L 116 28 Q 118 34 112 32 L 112 28 L 116 28 L 118 24 L 116 23.5 L 118 23 L 118 19.5 L 116 16 Z " /><path fill="rgb(17,21,31)" stroke="rgb(17,21,31)" stroke-width="1" opacity="1" d="M 51.5 19 L 54 19.5 L 51.5 24 L 48.5 23 L 47 23.5 L 47 25.5 L 48 31 Q 44.7 32.1 46 28 L 40 28 L 40 26 L 44 26 L 44 24.5 L 49.5 20 L 51.5 21 L 51.5 19 Z " /><path fill="rgb(17,21,31)" stroke="rgb(17,21,31)" stroke-width="1" opacity="1" d="M 72.5 24 L 73 31.5 L 72 31.5 L 72.5 24 Z " /><path fill="rgb(17,21,31)" stroke="rgb(17,21,31)" stroke-width="1" opacity="1" d="M 74 24 L 76 24.5 L 76 32 L 74 31.5 L 74 24 Z " /><path fill="rgb(17,21,31)" stroke="rgb(17,21,31)" stroke-width="1" opacity="1" d="M 128.5 25 L 129 28.5 L 128 28.5 L 128.5 25 Z " /><path fill="rgb(17,21,31)" stroke="rgb(17,21,31)" stroke-width="1" opacity="1" d="M 130.5 28 L 134 30.5 L 132.5 31 L 130.5 28 Z " /><path fill="rgb(17,21,31)" stroke="rgb(17,21,31)" stroke-width="1" opacity="1" d="M 39.5 29 Q 43.3 27.8 42 31.5 L 41 31.5 Q 41.8 29.3 39.5 30 L 39.5 29 Z " /><path fill="rgb(17,21,31)" stroke="rgb(17,21,31)" stroke-width="1" opacity="1" d="M 35.5 30 L 35 31.5 L 34.5 35 L 34 31.5 L 35.5 30 Z " /><path fill="rgb(17,21,31)" stroke="rgb(17,21,31)" stroke-width="1" opacity="1" d="M 37.5 31 L 38 34.5 L 37 36.5 L 40 37.5 Q 40.7 40.1 38 39 L 38 41.5 L 36 44.5 L 38 48.5 Q 38.7 51.1 36 50 L 36 54 L 33.5 54 L 32 54.5 L 31.5 51 L 29.5 54 L 29 51 L 32 49.5 L 33 47.5 L 32.5 46 L 35 47 L 33 40.5 L 33 38.5 L 33.5 37 L 35 41 L 37 40.5 L 36 35.5 L 37.5 31 Z " /><path fill="rgb(17,21,31)" stroke="rgb(17,21,31)" stroke-width="1" opacity="1" d="M 130.5 31 L 132.5 34 L 135 32.5 L 133 34.5 Q 136.1 36.3 134.5 38 Q 137.5 37.2 136 41 L 134 41 L 132 45 L 134 45 L 134 47 Q 136.7 45.9 136 48.5 L 137 48.5 Q 136.3 46.3 138.5 47 L 138.5 50 L 136 50 Q 137.7 55.2 134 54 Q 135 51 132 52 L 132 48 L 130 48 L 130 45.5 L 129 43.5 L 130 40 L 135 39.5 L 131.5 38 L 130 38.5 L 131 33.5 L 130.5 31 Z " /><path fill="rgb(17,21,31)" stroke="rgb(17,21,31)" stroke-width="1" opacity="1" d="M 46 42 L 48 42 L 48 47 L 45.5 48 L 44 44 Q 47 45 46 42 Z " /><path fill="rgb(17,21,31)" stroke="rgb(17,21,31)" stroke-width="1" opacity="1" d="M 30.5 46 L 29.5 48 L 30.5 46 Z " /><path fill="rgb(17,21,31)" stroke="rgb(17,21,31)" stroke-width="1" opacity="1" d="M 72.5 48 L 73.5 56 L 74 48 L 76 48.5 L 76 71.5 L 77 71.5 L 77.5 64 L 78 75.5 L 75 76.5 L 74.5 78 L 72 77 L 72 75 L 75 74.5 L 75 64 L 72 63.5 L 72.5 48 Z " /><path fill="rgb(17,21,31)" stroke="rgb(17,21,31)" stroke-width="1" opacity="1" d="M 94 48 L 96 48.5 L 96 128 L 94 127.5 L 94 48 Z " /><path fill="rgb(17,21,31)" stroke="rgb(17,21,31)" stroke-width="1" opacity="1" d="M 142.5 50 L 143 53 L 141 52.5 L 142.5 50 Z " /><path fill="rgb(17,21,31)" stroke="rgb(17,21,31)" stroke-width="1" opacity="1" d="M 24.5 51 L 27 51.5 L 24 52.5 L 27 53.5 L 21.5 58 L 21 55.5 L 22.5 54 L 22.5 56 L 25 54.5 Q 21.3 52.8 24.5 51 Z " /><path fill="rgb(17,21,31)" stroke="rgb(17,21,31)" stroke-width="1" opacity="1" d="M 40 52 L 46 52 Q 45.3 55.1 48 54.5 L 48 60 Q 45 61 46 58 L 42 58 Q 43 55 40 56 L 40 52 Z " /><path fill="rgb(17,21,31)" stroke="rgb(17,21,31)" stroke-width="1" opacity="1" d="M 138.5 52 L 139.5 54 L 138.5 52 Z " /><path fill="rgb(17,21,31)" stroke="rgb(17,21,31)" stroke-width="1" opacity="1" d="M 144.5 52 L 147 53.5 L 145.5 53 L 144.5 52 Z " /><path fill="rgb(17,21,31)" stroke="rgb(17,21,31)" stroke-width="1" opacity="1" d="M 142.5 55 L 143.5 57 L 142.5 55 Z " /><path fill="rgb(17,21,31)" stroke="rgb(17,21,31)" stroke-width="1" opacity="1" d="M 146.5 55 Q 148.8 54.3 148 56.5 L 150.5 60 L 149 60.5 L 149.5 62 Q 146.8 60.8 149 59.5 L 148.5 58 L 147 58.5 L 146.5 55 Z " /><path fill="rgb(17,21,31)" stroke="rgb(17,21,31)" stroke-width="1" opacity="1" d="M 23.5 59 L 28 61.5 Q 29.3 65.7 24.5 64 L 23 63.5 L 21.5 66 L 22 64.5 L 24 60.5 L 23.5 59 Z " /><path fill="rgb(17,21,31)" stroke="rgb(17,21,31)" stroke-width="1" opacity="1" d="M 19.5 60 L 20.5 62 L 19.5 60 Z " /><path fill="rgb(17,21,31)" stroke="rgb(17,21,31)" stroke-width="1" opacity="1" d="M 148.5 63 L 151 63.5 L 150 65.5 L 151 69 L 147.5 71 L 147 68.5 L 150 67.5 L 148.5 63 Z " /><path fill="rgb(17,21,31)" stroke="rgb(17,21,31)" stroke-width="1" opacity="1" d="M 148.5 72 L 149 73.5 L 148.5 76 Q 145.8 74.8 148 73.5 L 148.5 72 Z " /><path fill="rgb(17,21,31)" stroke="rgb(17,21,31)" stroke-width="1" opacity="1" d="M 146.5 76 L 145.5 78 L 146.5 76 Z " /><path fill="rgb(17,21,31)" stroke="rgb(17,21,31)" stroke-width="1" opacity="1" d="M 147.5 78 L 148.5 80 L 150 79.5 L 149 80.5 L 152.5 84 L 154 84.5 L 152 85 L 153.5 88 L 156.5 87 L 156 88.5 L 155.5 90 L 153 89.5 Q 153.8 87.3 151.5 88 L 149.5 88 L 146 90.5 L 146 102 Q 149 101 148 104 L 151.5 104 L 153.5 104 Q 155.8 103.3 155 105.5 L 155.5 107 L 152 104.5 L 152.5 108 L 154 107.5 Q 154.8 110.1 151.5 109 L 148.5 113 L 144 112 L 144 105.5 L 145.5 105 L 145.5 104 L 144 103.5 L 144 80 L 147.5 78 Z " /><path fill="rgb(17,21,31)" stroke="rgb(17,21,31)" stroke-width="1" opacity="1" d="M 18.5 79 L 19.5 81 L 18.5 79 Z " /><path fill="rgb(17,21,31)" stroke="rgb(17,21,31)" stroke-width="1" opacity="1" d="M 74.5 80 L 75 88 L 78 88 L 78 96 L 76 96.5 L 78 97 L 78 103.5 L 76.5 104 Q 75.3 101.8 74 104.5 L 73.5 107 L 73 102.5 L 75 100.5 L 75 88.5 L 74 87.5 L 74.5 80 Z " /><path fill="rgb(17,21,31)" stroke="rgb(17,21,31)" stroke-width="1" opacity="1" d="M 16.5 82 L 19 82.5 L 18.5 84 L 20 84.5 L 17 86 L 16.5 82 Z " /><path fill="rgb(17,21,31)" stroke="rgb(17,21,31)" stroke-width="1" opacity="1" d="M 22.5 84 L 20.5 87 L 22.5 84 Z " /><path fill="rgb(17,21,31)" stroke="rgb(17,21,31)" stroke-width="1" opacity="1" d="M 13.5 85 Q 15.8 85.8 15 89.5 L 14 89.5 L 13.5 85 Z " /><path fill="rgb(17,21,31)" stroke="rgb(17,21,31)" stroke-width="1" opacity="1" d="M 17.5 87 L 22 88 Q 23.8 94.1 20.5 96 Q 18.3 96.8 19 94.5 Q 15.3 93.8 16 88.5 L 17.5 87 Z " /><path fill="rgb(17,21,31)" stroke="rgb(17,21,31)" stroke-width="1" opacity="1" d="M 14.5 92 L 12.5 96 Q 14.8 95.3 14 97.5 L 11 99 Q 9.8 94.4 12.5 93 L 14.5 92 Z " /><path fill="rgb(17,21,31)" stroke="rgb(17,21,31)" stroke-width="1" opacity="1" d="M 30 92 Q 33.7 90.8 32 96 L 26 96 L 26 94 Q 31.2 95.7 30 92 Z " /><path fill="rgb(17,21,31)" stroke="rgb(17,21,31)" stroke-width="1" opacity="1" d="M 156.5 93 L 158 94.5 L 157.5 97 L 156 96.5 Q 156.8 98.8 154.5 98 L 156 95.5 L 156.5 93 Z " /><path fill="rgb(17,21,31)" stroke="rgb(17,21,31)" stroke-width="1" opacity="1" d="M 155.5 99 L 157 102.5 L 154.5 103 Q 151 101 155.5 99 Z " /><path fill="rgb(17,21,31)" stroke="rgb(17,21,31)" stroke-width="1" opacity="1" d="M 11.5 100 L 13.5 100 L 15 100.5 L 13 101.5 L 13.5 103 L 11 101.5 L 11.5 100 Z " /><path fill="rgb(17,21,31)" stroke="rgb(17,21,31)" stroke-width="1" opacity="1" d="M 157.5 100 L 158.5 102 L 157.5 100 Z " /><path fill="rgb(17,21,31)" stroke="rgb(17,21,31)" stroke-width="1" opacity="1" d="M 16.5 104 L 17 106 L 20 106.5 Q 17.8 107.8 20.5 109 L 22 108.5 Q 20.3 111.8 18.5 108 L 15.5 106 L 16.5 104 Z " /><path fill="rgb(17,21,31)" stroke="rgb(17,21,31)" stroke-width="1" opacity="1" d="M 73.5 109 L 74.5 114 L 78 112 L 78 115 Q 73.5 113.5 75 118 L 78 119.5 L 77.5 145 L 75.5 144 L 75.5 146 L 73 144.5 L 76 142.5 L 76 120.5 L 74.5 120 Q 71 119 72 113.5 L 73.5 109 Z " /><path fill="rgb(17,21,31)" stroke="rgb(17,21,31)" stroke-width="1" opacity="1" d="M 20.5 111 L 24 113.5 L 22.5 113 L 20.5 111 Z " /><path fill="rgb(17,21,31)" stroke="rgb(17,21,31)" stroke-width="1" opacity="1" d="M 136.5 112 L 138.5 113 L 140.5 112 L 140.5 113 Q 137.9 112.3 139 115 L 137 115 L 136.5 112 Z " /><path fill="rgb(17,21,31)" stroke="rgb(17,21,31)" stroke-width="1" opacity="1" d="M 142.5 113 L 146 113.5 Q 140.1 114.1 138.5 119 L 138 117.5 L 142.5 113 Z " /><path fill="rgb(17,21,31)" stroke="rgb(17,21,31)" stroke-width="1" opacity="1" d="M 26.5 115 L 27.5 117 L 26.5 115 Z " /><path fill="rgb(17,21,31)" stroke="rgb(17,21,31)" stroke-width="1" opacity="1" d="M 26.5 118 Q 28.8 117.3 28 119.5 L 31 118.5 L 29 122.5 L 30 124.5 L 28 123.5 L 27.5 120 L 26.5 122 L 26 120.5 L 26.5 118 Z " /><path fill="rgb(17,21,31)" stroke="rgb(17,21,31)" stroke-width="1" opacity="1" d="M 140.5 119 L 140 120.5 Q 139.3 122.8 141.5 122 L 143 121.5 L 142 129 L 140 128.5 L 142 124.5 L 139 123.5 Q 138.3 119.8 140.5 119 Z " /><path fill="rgb(17,21,31)" stroke="rgb(17,21,31)" stroke-width="1" opacity="1" d="M 72.5 120 L 73 124.5 L 72 124.5 L 72.5 120 Z " /><path fill="rgb(17,21,31)" stroke="rgb(17,21,31)" stroke-width="1" opacity="1" d="M 137.5 120 L 139 128.5 L 137 129 L 137.5 120 Z " /><path fill="rgb(17,21,31)" stroke="rgb(17,21,31)" stroke-width="1" opacity="1" d="M 25 123 Q 27.7 121.9 27 124.5 L 29 127.5 L 28 127.5 L 27.5 126 L 26 126.5 L 25 123 Z " /><path fill="rgb(17,21,31)" stroke="rgb(17,21,31)" stroke-width="1" opacity="1" d="M 30.5 128 L 32 131.5 L 30 134.5 L 32 135 L 32.5 133 L 38 134 L 39.5 137 L 42.5 136 L 44 139.5 L 42.5 139 L 41 138.5 L 41.5 137 Q 39.3 136.3 40 138.5 L 38.5 141 L 37 138.5 Q 39.3 137.3 36.5 136 L 33.5 137 Q 29.5 137.5 29 134.5 L 30 132.5 L 28 132.5 L 27 130.5 L 29 129.5 L 28.5 131 L 31 129.5 L 30.5 128 Z " /><path fill="rgb(17,21,31)" stroke="rgb(17,21,31)" stroke-width="1" opacity="1" d="M 46 128 Q 49 127 48 130 Q 45 131 46 128 Z " /><path fill="rgb(17,21,31)" stroke="rgb(17,21,31)" stroke-width="1" opacity="1" d="M 124 128 Q 129.2 126.3 128 130 Q 122.8 131.7 124 128 Z " /><path fill="rgb(17,21,31)" stroke="rgb(17,21,31)" stroke-width="1" opacity="1" d="M 138 130 L 140 130.5 L 138 131.5 L 138 130 Z " /><path fill="rgb(17,21,31)" stroke="rgb(17,21,31)" stroke-width="1" opacity="1" d="M 130 132 L 132 132 Q 130.5 135.7 133.5 135 L 137.5 133 L 139 133.5 L 134 136.5 L 135.5 139 L 133 137.5 Q 133.8 135.3 131.5 136 L 132 137.5 L 131.5 140 L 129.5 136 Q 126.9 136.7 128 134 Q 131 135 130 132 Z " /><path fill="rgb(17,21,31)" stroke="rgb(17,21,31)" stroke-width="1" opacity="1" d="M 46.5 137 Q 51 139 47.5 141 L 46.5 137 Z " /><path fill="rgb(17,21,31)" stroke="rgb(17,21,31)" stroke-width="1" opacity="1" d="M 34.5 138 L 35.5 140 L 34.5 138 Z " /><path fill="rgb(17,21,31)" stroke="rgb(17,21,31)" stroke-width="1" opacity="1" d="M 118.5 138 L 120.5 139 L 122 138.5 Q 122.8 140.8 120.5 140 L 118.5 143 L 118.5 138 Z " /><path fill="rgb(17,21,31)" stroke="rgb(17,21,31)" stroke-width="1" opacity="1" d="M 126.5 138 L 130 140.5 L 127 140.5 L 127.5 139 L 125.5 140 L 126.5 138 Z " /><path fill="rgb(17,21,31)" stroke="rgb(17,21,31)" stroke-width="1" opacity="1" d="M 123.5 140 L 124.5 142 L 123.5 140 Z " /><path fill="rgb(17,21,31)" stroke="rgb(17,21,31)" stroke-width="1" opacity="1" d="M 91.5 143 L 92.5 145 L 90 144.5 L 91.5 143 Z " /><path fill="rgb(17,21,31)" stroke="rgb(17,21,31)" stroke-width="1" opacity="1" d="M 51 144 L 54 145.5 L 51 145.5 L 51 144 Z " /><path fill="rgb(17,21,31)" stroke="rgb(17,21,31)" stroke-width="1" opacity="1" d="M 115.5 144 L 118 144.5 L 117.5 146 L 119 146.5 L 117.5 147 L 116.5 146 L 114 147.5 Q 113.3 145.3 115.5 146 L 115.5 144 Z " /><path fill="rgb(17,21,31)" stroke="rgb(17,21,31)" stroke-width="1" opacity="1" d="M 70.5 146 L 72 146.5 L 72 152 L 65.5 153 L 62.5 152 L 58.5 154 L 58.5 152 L 55 150.5 L 56 148 L 60.5 150 L 64 148 L 64.5 150 L 70.5 146 Z " /><path fill="rgb(17,21,31)" stroke="rgb(17,21,31)" stroke-width="1" opacity="1" d="M 96.5 146 L 98.5 148 L 103.5 149 L 112.5 147 L 110.5 150 Q 108.3 149.3 109 151.5 L 109.5 153 L 106.5 152 L 102.5 153 L 100 151.5 L 100.5 150 L 96.5 148 L 95.5 151 L 94 148 Q 96.8 149 96.5 146 Z " /><path fill="rgb(17,21,31)" stroke="rgb(17,21,31)" stroke-width="1" opacity="1" d="M 52 148 L 54 148.5 L 52 149.5 L 52 148 Z " /><path fill="rgb(17,21,32)" stroke="rgb(17,21,32)" stroke-width="1" opacity="1" d="M 110.5 6 L 109.5 8 L 110.5 6 Z " /><path fill="rgb(17,21,32)" stroke="rgb(17,21,32)" stroke-width="1" opacity="1" d="M 69 8 Q 72.8 7.3 74 10.5 L 72 10.5 Q 72.8 12.8 70.5 12 L 70.5 13 L 73.5 12 L 76 13.5 L 74.5 14 L 73 13.5 Q 72.3 16.1 75 15 L 75 18.5 L 75 20.5 L 74.5 24 L 73.5 16 L 71.5 16 Q 68.9 16.7 70 14 L 68 14 L 68 10.5 L 69 8 Z " /><path fill="rgb(17,21,32)" stroke="rgb(17,21,32)" stroke-width="1" opacity="1" d="M 113.5 9 L 112.5 11 L 113.5 9 Z " /><path fill="rgb(17,21,32)" stroke="rgb(17,21,32)" stroke-width="1" opacity="1" d="M 75.5 10 L 76.5 12 L 75.5 10 Z " /><path fill="rgb(17,21,32)" stroke="rgb(17,21,32)" stroke-width="1" opacity="1" d="M 92.5 11 L 91.5 13 L 92.5 11 Z " /><path fill="rgb(17,21,32)" stroke="rgb(17,21,32)" stroke-width="1" opacity="1" d="M 115.5 11 L 119 13.5 L 117.5 14 L 115.5 11 Z " /><path fill="rgb(17,21,32)" stroke="rgb(17,21,32)" stroke-width="1" opacity="1" d="M 50.5 12 L 53 13.5 L 51.5 14 L 50.5 12 Z " /><path fill="rgb(17,21,32)" stroke="rgb(17,21,32)" stroke-width="1" opacity="1" d="M 56 12 Q 59.3 10.7 58 15.5 L 57 16.5 L 57 24 Q 61.1 22.3 60 26.5 L 64.5 29 L 66 26 L 69 27.5 L 70 29.5 L 70 47.5 L 68 52 L 64.5 53 L 63.5 52 L 48.5 52 L 46 53.5 Q 46.6 50.8 40.5 52 L 38.5 53 L 36 52 Q 35 49 38 50 L 38 47 L 39.5 47 L 39 45.5 L 38.5 42 L 36.5 47 L 37 45.5 Q 36.4 39.4 40 37.5 L 37 38.5 L 39 31.5 L 38.5 30 L 42 32 L 42 29 L 38 29 L 38 27.5 L 37.5 26 L 40 26.5 L 39.5 28 L 46 28 L 46 30.5 L 48 31.5 Q 46.3 26.7 50.5 28 L 53 23.5 L 52.5 22 Q 54.3 24.8 56 20.5 L 55.5 18 L 54.5 20 Q 51.3 18.3 55 16.5 L 54 13.5 L 56 13.5 L 56 12 Z M 46 42 Q 47 45 44 44 L 46 48 L 48 47 L 48 42 L 46 42 Z " /><path fill="rgb(17,21,32)" stroke="rgb(17,21,32)" stroke-width="1" opacity="1" d="M 112.5 12 Q 114.8 11.3 114 13.5 L 112.5 12 Z " /><path fill="rgb(17,21,32)" stroke="rgb(17,21,32)" stroke-width="1" opacity="1" d="M 93.5 14 L 96 20.5 L 94 19.5 L 93.5 14 Z " /><path fill="rgb(17,21,32)" stroke="rgb(17,21,32)" stroke-width="1" opacity="1" d="M 52 15 L 54 15.5 L 52 16.5 L 52 15 Z " /><path fill="rgb(17,21,32)" stroke="rgb(17,21,32)" stroke-width="1" opacity="1" d="M 112.5 15 L 115 16 L 114.5 21 L 112.5 15 Z " /><path fill="rgb(17,21,32)" stroke="rgb(17,21,32)" stroke-width="1" opacity="1" d="M 89.5 17 L 91 23.5 L 90 24.5 L 90 138.5 L 90.5 140 L 89 139.5 L 89.5 17 Z " /><path fill="rgb(17,21,32)" stroke="rgb(17,21,32)" stroke-width="1" opacity="1" d="M 50.5 19 L 51.5 21 Q 48.7 21.7 50.5 19 Z " /><path fill="rgb(17,21,32)" stroke="rgb(17,21,32)" stroke-width="1" opacity="1" d="M 122.5 21 L 121.5 23 L 122.5 21 Z " /><path fill="rgb(17,21,32)" stroke="rgb(17,21,32)" stroke-width="1" opacity="1" d="M 92.5 22 Q 94.8 21.3 94 23.5 L 92.5 22 Z " /><path fill="rgb(17,21,32)" stroke="rgb(17,21,32)" stroke-width="1" opacity="1" d="M 130.5 25 L 130.5 28 Q 127.5 26.5 130.5 25 Z " /><path fill="rgb(17,21,32)" stroke="rgb(17,21,32)" stroke-width="1" opacity="1" d="M 110.5 26 L 115.5 26 Q 114.5 29.3 120.5 28 L 123.5 29 L 128 28 L 128.5 30 Q 130.3 27.3 132 31.5 L 129 33.5 L 131.5 37 L 129 36 L 131 39.5 L 129 44.5 L 130 48 Q 133.7 46.8 132 52 L 136 54 L 137 51.5 L 136.5 50 Q 139.3 51.3 137 52.5 L 137.5 54 L 139 53.5 Q 138.3 55.8 140.5 55 L 143.5 53 L 146 57.5 L 145 58.5 L 145.5 60 L 147 59.5 L 149 68.5 L 147 67.5 L 146.5 62 L 146 71.5 L 144 73.5 L 147 75.5 L 144 77.5 L 145.5 80 L 144 79.5 L 144 100 L 120.5 100 L 120 104 L 118 104 L 118 135.5 L 117 138 L 113 136 L 112.5 138 L 109.5 137 L 107 138.5 L 112.5 141 L 115.5 140 L 118 141 Q 118.8 144.8 115.5 146 L 113.5 145 L 113.5 147 Q 112 144.5 110.5 148 Q 105 146.5 103.5 149 L 98.5 148 L 96.5 146 L 96 147.5 L 97.5 150 Q 95.3 150.8 96 148.5 L 95 146.5 Q 97.3 145.2 96 140.5 L 95 140.5 L 94.5 145 L 93 139.5 L 95 139.5 L 94 128 L 96 127.5 L 96 48 L 94 47.5 L 94 40 L 107 40 L 107 32.5 L 108 28.5 L 110.5 26 Z M 112 28 Q 110 34 116 32 Q 118 26 112 28 Z M 121 29 L 120 32 L 121 32 L 121 29 Z M 118 48 L 118 72 L 120 72 L 121 76 L 131 76 L 132 75 L 132 57 L 133 56 L 132 54 L 130 52 L 128 52 L 120 52 Q 122 47 118 48 Z M 143 54 L 142 56 L 144 55 L 143 54 Z M 114 142 L 114 144 L 116 145 Q 117 141 114 142 Z M 109 143 L 108 144 Q 105 143 106 146 L 113 145 Q 112 142 109 143 Z M 102 145 Q 101 148 104 147 Q 105 144 102 145 Z " /><path fill="rgb(17,21,32)" stroke="rgb(17,21,32)" stroke-width="1" opacity="1" d="M 134.5 30 L 133.5 32 L 134.5 30 Z " /><path fill="rgb(17,21,32)" stroke="rgb(17,21,32)" stroke-width="1" opacity="1" d="M 94.5 32 L 95 36.5 L 94 36.5 L 94.5 32 Z " /><path fill="rgb(17,21,32)" stroke="rgb(17,21,32)" stroke-width="1" opacity="1" d="M 132.5 33 L 134.5 36 L 132.5 33 Z " /><path fill="rgb(17,21,32)" stroke="rgb(17,21,32)" stroke-width="1" opacity="1" d="M 132 43 Q 135 42 134 45 Q 131 46 132 43 Z " /><path fill="rgb(17,21,32)" stroke="rgb(17,21,32)" stroke-width="1" opacity="1" d="M 30.5 49 L 32 53.5 Q 29.5 55 33 56.5 L 33 64 L 29.5 64 L 26.5 60 L 24 58.5 L 24 56 L 28 54 L 28 51.5 L 29 51.5 L 29.5 54 L 31 51.5 L 30.5 49 Z " /><path fill="rgb(17,21,32)" stroke="rgb(17,21,32)" stroke-width="1" opacity="1" d="M 139.5 50 L 141 52.5 L 140 52.5 L 139.5 50 Z " /><path fill="rgb(17,21,32)" stroke="rgb(17,21,32)" stroke-width="1" opacity="1" d="M 20.5 54 L 19.5 56 L 20.5 54 Z " /><path fill="rgb(17,21,32)" stroke="rgb(17,21,32)" stroke-width="1" opacity="1" d="M 23.5 54 L 22.5 56 L 23.5 54 Z " /><path fill="rgb(17,21,32)" stroke="rgb(17,21,32)" stroke-width="1" opacity="1" d="M 70 64 L 75 64 L 75 75 L 71.5 76 L 70 74.5 L 70 64 Z " /><path fill="rgb(17,21,32)" stroke="rgb(17,21,32)" stroke-width="1" opacity="1" d="M 22.5 65 L 23 68.5 L 22 68.5 L 22.5 65 Z " /><path fill="rgb(17,21,32)" stroke="rgb(17,21,32)" stroke-width="1" opacity="1" d="M 23.5 70 L 24 74.5 L 23 76.5 Q 25.5 78 22 79.5 Q 22.8 83.3 20.5 84 L 21 82.5 Q 20.3 78.3 23 77.5 L 19 74.5 L 20 71 L 23.5 70 Z " /><path fill="rgb(17,21,32)" stroke="rgb(17,21,32)" stroke-width="1" opacity="1" d="M 149.5 71 L 150.5 73 L 149.5 71 Z " /><path fill="rgb(17,21,32)" stroke="rgb(17,21,32)" stroke-width="1" opacity="1" d="M 48.5 76 L 63.5 76 L 64 78.5 L 65 78.5 L 66.5 76 L 70 77.5 L 70 88 L 75 88.5 L 75 100.5 Q 72 101.5 73 106.5 L 74 106.5 L 75.5 103 L 76 112.5 L 74 113.5 L 73.5 109 L 73 112 L 70 112.5 L 70 136 Q 73 135 72 138 L 74.5 138 L 76 137.5 L 75 144 L 72 145.5 L 74 147.5 L 73 148.5 L 74.5 151 L 71.5 146 L 64.5 150 L 64 148 L 60.5 150 L 55.5 147 L 54.5 149 L 54 147 L 51.5 148 L 52.5 146 Q 54.8 146.8 54 144.5 L 50 142 L 46.5 136 L 45.5 140 L 43.5 136 L 38.5 136 Q 39.5 132.7 33.5 134 L 30 131.5 L 32 131.5 L 31.5 126 L 29.5 129 L 30 127.5 L 30.5 124 L 32 124.5 L 31 121.5 L 33.5 123 L 36 124.5 L 38.5 128 Q 41.5 128.9 40 124.5 L 43 126.5 Q 42.3 128.8 44.5 128 L 46 126.5 L 46 112 Q 49.1 111.3 48.5 114 L 56 114 Q 55.3 110.9 58 111.5 L 58 104.5 L 59 101.5 Q 57.3 97.3 55.5 100 L 32.5 100 L 32 103.5 L 33 104.5 L 33 119.5 L 30.5 118 Q 27.2 119.1 28 116.5 Q 24.5 115 27 113.5 L 26.5 112 L 24 113.5 L 24.5 112 Q 21.9 112.8 23 109.5 L 17 105.5 L 21.5 105 L 24 106.5 L 22.5 104 Q 15.5 105.5 16 102.5 L 16 100.5 L 15.5 99 L 13.5 100 L 13.5 99 L 16 97.5 Q 17.5 93.1 14.5 94 L 12 90.5 L 13 90.5 L 14.5 93 L 16.5 92 L 19 96 L 22 94.5 Q 23.5 87.5 20.5 88 L 19.5 86 L 22.5 88 L 24.5 88 L 46 88 L 46 77.5 L 47.5 77 L 48.5 76 Z M 30 92 Q 31 96 26 94 L 26 96 L 32 96 Q 34 91 30 92 Z M 29 112 L 27 115 L 29 115 L 29 112 Z M 31 112 L 31 116 L 32 116 L 31 112 Z M 30 115 Q 28 118 31 117 L 30 115 Z M 46 128 Q 45 131 48 130 Q 49 127 46 128 Z M 52 138 L 52 140 Q 54 143 55 140 L 52 138 Z " /><path fill="rgb(17,21,32)" stroke="rgb(17,21,32)" stroke-width="1" opacity="1" d="M 20.5 77 L 19.5 79 L 20.5 77 Z " /><path fill="rgb(17,21,32)" stroke="rgb(17,21,32)" stroke-width="1" opacity="1" d="M 153.5 81 L 152.5 83 L 153.5 81 Z " /><path fill="rgb(17,21,32)" stroke="rgb(17,21,32)" stroke-width="1" opacity="1" d="M 152.5 86 L 154 87.5 L 152.5 90 Q 154.8 89.3 154 91.5 L 155 91.5 L 155.5 90 L 156 94 L 152 94.5 L 155 95 L 154 100.5 L 154.5 102 Q 153.3 99.8 152 102.5 L 152 104 L 148 104 Q 148.8 100.9 146 101.5 L 146 90 Q 149 91 148 88 L 152.5 88 L 152.5 86 Z M 153 97 L 152 100 L 153 100 L 153 97 Z " /><path fill="rgb(17,21,32)" stroke="rgb(17,21,32)" stroke-width="1" opacity="1" d="M 13.5 95 Q 15.8 94.3 15 96.5 L 13.5 95 Z " /><path fill="rgb(17,21,32)" stroke="rgb(17,21,32)" stroke-width="1" opacity="1" d="M 156.5 97 L 158 99.5 L 156 100 L 156.5 97 Z " /><path fill="rgb(17,21,32)" stroke="rgb(17,21,32)" stroke-width="1" opacity="1" d="M 156.5 103 L 157.5 105 L 156.5 103 Z " /><path fill="rgb(17,21,32)" stroke="rgb(17,21,32)" stroke-width="1" opacity="1" d="M 77.5 104 L 78 111.5 L 77 111.5 L 77.5 104 Z " /><path fill="rgb(17,21,32)" stroke="rgb(17,21,32)" stroke-width="1" opacity="1" d="M 153.5 105 L 152.5 107 L 153.5 105 Z " /><path fill="rgb(17,21,32)" stroke="rgb(17,21,32)" stroke-width="1" opacity="1" d="M 17.5 108 L 21 110.5 L 18.5 109 L 17.5 108 Z " /><path fill="rgb(17,21,32)" stroke="rgb(17,21,32)" stroke-width="1" opacity="1" d="M 145.5 112 L 148 113.5 L 146.5 116 L 145.5 112 Z " /><path fill="rgb(17,21,32)" stroke="rgb(17,21,32)" stroke-width="1" opacity="1" d="M 21.5 113 L 23 115.5 L 22 115.5 L 21.5 114 L 20 114.5 L 21.5 113 Z " /><path fill="rgb(17,21,32)" stroke="rgb(17,21,32)" stroke-width="1" opacity="1" d="M 24.5 116 L 27 117.5 L 25.5 117 L 24.5 116 Z " /><path fill="rgb(17,21,32)" stroke="rgb(17,21,32)" stroke-width="1" opacity="1" d="M 74.5 120 L 75 127.5 L 74 127.5 L 74.5 120 Z " /><path fill="rgb(17,21,32)" stroke="rgb(17,21,32)" stroke-width="1" opacity="1" d="M 25.5 121 L 26.5 123 Q 23.7 123.7 25.5 121 Z " /><path fill="rgb(17,21,32)" stroke="rgb(17,21,32)" stroke-width="1" opacity="1" d="M 72.5 125 L 73 127.5 L 72 127.5 L 72.5 125 Z " /><path fill="rgb(17,21,32)" stroke="rgb(17,21,32)" stroke-width="1" opacity="1" d="M 27.5 128 L 27 129.5 L 26.5 131 L 26 129.5 L 27.5 128 Z " /><path fill="rgb(17,21,32)" stroke="rgb(17,21,32)" stroke-width="1" opacity="1" d="M 138.5 129 L 137.5 131 L 136 131.5 L 136.5 133 L 132 135 L 132 132 Q 135 133 134 130 L 137.5 130 L 138.5 129 Z " /><path fill="rgb(17,21,32)" stroke="rgb(17,21,32)" stroke-width="1" opacity="1" d="M 140.5 129 L 141.5 131 L 140.5 129 Z " /><path fill="rgb(17,21,32)" stroke="rgb(17,21,32)" stroke-width="1" opacity="1" d="M 122 134 L 127.5 134 L 128 135.5 L 129 138.5 L 126.5 137 Q 124.3 136.3 125 138.5 L 124 138.5 L 123.5 136 L 119.5 139 L 119 137 Q 123.5 138.5 122 134 Z " /><path fill="rgb(17,21,32)" stroke="rgb(17,21,32)" stroke-width="1" opacity="1" d="M 137.5 134 L 137 135.5 Q 137.8 137.8 135.5 137 L 137.5 134 Z " /><path fill="rgb(17,21,32)" stroke="rgb(17,21,32)" stroke-width="1" opacity="1" d="M 76.5 144 L 77 145.5 Q 75.5 148.5 74 145.5 L 76 145.5 L 76.5 144 Z " /><path fill="rgb(17,21,32)" stroke="rgb(17,21,32)" stroke-width="1" opacity="1" d="M 91.5 147 L 92.5 149 L 91.5 147 Z " /><path fill="rgb(17,21,32)" stroke="rgb(17,21,32)" stroke-width="1" opacity="1" d="M 113.5 148 L 114 151 L 112 150.5 L 113.5 148 Z " /><path fill="rgb(0,0,0)" stroke="rgb(0,0,0)" stroke-width="1" opacity="0" d="M 0 0 L 168 0 L 168 166 L 0 166 L 0 0 Z M 65 4 L 56 6 L 51 9 L 48 14 L 47 20 L 40 23 L 31 34 L 31 45 L 25 48 Q 19 52 16 60 L 16 71 L 19 78 L 15 81 Q 16 83 13 82 L 9 92 L 9 102 L 13 110 Q 17 116 25 117 L 24 121 L 25 132 L 27 135 L 36 142 L 47 143 L 48 147 Q 52 153 60 155 Q 69 156 74 153 L 80 146 L 80 15 L 79 13 L 73 6 L 65 4 Z M 105 4 L 96 7 L 93 9 L 88 17 L 88 144 L 91 150 L 101 155 Q 110 156 115 153 L 121 145 L 123 143 L 132 143 L 138 140 Q 144 136 146 128 Q 147 120 145 117 L 152 114 Q 159 109 161 99 Q 160 83 150 77 L 153 71 Q 155 59 150 54 Q 146 48 140 46 L 138 45 L 138 35 L 135 29 Q 131 22 122 21 L 122 18 L 119 12 Q 115 5 105 4 Z " /><path fill="rgb(16,19,30)" stroke="rgb(16,19,30)" stroke-width="1" opacity="1" d="M 65.5 7 L 68 8.5 Q 66.5 11.5 65 8.5 L 65.5 7 Z " /><path fill="rgb(16,19,30)" stroke="rgb(16,19,30)" stroke-width="1" opacity="1" d="M 57.5 8 L 58 10 L 56 9.5 L 57.5 8 Z " /><path fill="rgb(16,19,30)" stroke="rgb(16,19,30)" stroke-width="1" opacity="1" d="M 62 10 Q 65.7 8.8 64 14 Q 60.3 15.2 62 10 Z " /><path fill="rgb(16,19,30)" stroke="rgb(16,19,30)" stroke-width="1" opacity="1" d="M 72.5 10 L 73.5 12 L 72.5 10 Z " /><path fill="rgb(16,19,30)" stroke="rgb(16,19,30)" stroke-width="1" opacity="1" d="M 96.5 13 Q 98.8 12.3 98 14.5 L 100 14.5 Q 100.8 16.8 98.5 16 L 95 14.5 L 96.5 13 Z " /><path fill="rgb(16,19,30)" stroke="rgb(16,19,30)" stroke-width="1" opacity="1" d="M 66.5 14 Q 70.3 13 69 16 L 64 15.5 L 66.5 14 Z " /><path fill="rgb(16,19,30)" stroke="rgb(16,19,30)" stroke-width="1" opacity="1" d="M 73.5 16 L 72.5 18 L 73.5 16 Z " /><path fill="rgb(16,19,30)" stroke="rgb(16,19,30)" stroke-width="1" opacity="1" d="M 62.5 17 L 63 19.5 L 62 19.5 L 62.5 17 Z " /><path fill="rgb(16,19,30)" stroke="rgb(16,19,30)" stroke-width="1" opacity="1" d="M 115.5 17 Q 119 18.3 118 23 L 116 22.5 L 117 19.5 L 116 19.5 L 115.5 21 L 115.5 17 Z " /><path fill="rgb(16,19,30)" stroke="rgb(16,19,30)" stroke-width="1" opacity="1" d="M 112.5 18 L 113 20.5 L 112 20.5 L 112.5 18 Z " /><path fill="rgb(16,19,30)" stroke="rgb(16,19,30)" stroke-width="1" opacity="1" d="M 52.5 19 L 53.5 21 L 52.5 19 Z " /><path fill="rgb(16,19,30)" stroke="rgb(16,19,30)" stroke-width="1" opacity="1" d="M 93.5 20 L 94.5 22 L 93.5 20 Z " /><path fill="rgb(16,19,30)" stroke="rgb(16,19,30)" stroke-width="1" opacity="1" d="M 73.5 22 L 74 24.5 L 73.5 40 L 72.5 24 L 71.5 26 L 71 24.5 L 73.5 22 Z " /><path fill="rgb(16,19,30)" stroke="rgb(16,19,30)" stroke-width="1" opacity="1" d="M 48.5 24 Q 51.1 23.3 50 26 L 47.5 27 L 47 25.5 L 48.5 24 Z " /><path fill="rgb(16,19,30)" stroke="rgb(16,19,30)" stroke-width="1" opacity="1" d="M 76.5 24 L 78 63.5 L 76.5 72 L 76.5 24 Z " /><path fill="rgb(16,19,30)" stroke="rgb(16,19,30)" stroke-width="1" opacity="1" d="M 116 24 Q 119 23 118 26 Q 115 27 116 24 Z " /><path fill="rgb(16,19,30)" stroke="rgb(16,19,30)" stroke-width="1" opacity="1" d="M 122.5 26 L 123.5 28 L 121 27.5 L 122.5 26 Z " /><path fill="rgb(16,19,30)" stroke="rgb(16,19,30)" stroke-width="1" opacity="1" d="M 126.5 26 L 127.5 28 L 126.5 26 Z " /><path fill="rgb(16,19,30)" stroke="rgb(16,19,30)" stroke-width="1" opacity="1" d="M 128.5 29 L 129.5 31 L 128.5 29 Z " /><path fill="rgb(16,19,30)" stroke="rgb(16,19,30)" stroke-width="1" opacity="1" d="M 92 32 L 94 32.5 L 94 135.5 L 95 139.5 L 94 139.5 L 93 135.5 L 93 35.5 L 92 32 Z " /><path fill="rgb(16,19,30)" stroke="rgb(16,19,30)" stroke-width="1" opacity="1" d="M 128.5 32 L 129.5 34 L 128.5 32 Z " /><path fill="rgb(16,19,30)" stroke="rgb(16,19,30)" stroke-width="1" opacity="1" d="M 131 38 L 133 38.5 L 131 39.5 L 131 38 Z " /><path fill="rgb(16,19,30)" stroke="rgb(16,19,30)" stroke-width="1" opacity="1" d="M 73.5 48 L 74 55.5 L 73 55.5 L 73.5 48 Z " /><path fill="rgb(16,19,30)" stroke="rgb(16,19,30)" stroke-width="1" opacity="1" d="M 90.5 49 L 91 126.5 L 90 126.5 L 90.5 49 Z " /><path fill="rgb(16,19,30)" stroke="rgb(16,19,30)" stroke-width="1" opacity="1" d="M 27.5 51 L 28 53.5 L 27 53.5 L 27.5 51 Z " /><path fill="rgb(16,19,30)" stroke="rgb(16,19,30)" stroke-width="1" opacity="1" d="M 22.5 57 L 24 61.5 L 23 61.5 L 22.5 57 Z " /><path fill="rgb(16,19,30)" stroke="rgb(16,19,30)" stroke-width="1" opacity="1" d="M 144.5 57 L 147 58.5 L 145.5 59 L 144.5 57 Z " /><path fill="rgb(16,19,30)" stroke="rgb(16,19,30)" stroke-width="1" opacity="1" d="M 128 58 L 130 58 L 130 64 L 128 64 L 128 58 Z " /><path fill="rgb(16,19,30)" stroke="rgb(16,19,30)" stroke-width="1" opacity="1" d="M 44 60 Q 50 58 48 64 L 42 64 L 42 62 Q 45 63 44 60 Z " /><path fill="rgb(16,19,30)" stroke="rgb(16,19,30)" stroke-width="1" opacity="1" d="M 25 64 L 28 64.5 L 28 78.5 L 25 80 L 25 64 Z " /><path fill="rgb(16,19,30)" stroke="rgb(16,19,30)" stroke-width="1" opacity="1" d="M 20.5 65 L 22 68 L 20 67.5 L 20.5 65 Z " /><path fill="rgb(16,19,30)" stroke="rgb(16,19,30)" stroke-width="1" opacity="1" d="M 23.5 68 L 23 69.5 L 24 71.5 L 22 70.5 L 23.5 68 Z " /><path fill="rgb(16,19,30)" stroke="rgb(16,19,30)" stroke-width="1" opacity="1" d="M 146.5 68 L 148 72.5 L 145 72.5 L 146.5 68 Z " /><path fill="rgb(16,19,30)" stroke="rgb(16,19,30)" stroke-width="1" opacity="1" d="M 66.5 72 L 69 72.5 Q 66.9 75.8 66.5 72 Z " /><path fill="rgb(16,19,30)" stroke="rgb(16,19,30)" stroke-width="1" opacity="1" d="M 22.5 75 Q 25.5 76.5 22.5 78 L 22.5 75 Z " /><path fill="rgb(16,19,30)" stroke="rgb(16,19,30)" stroke-width="1" opacity="1" d="M 76.5 75 L 78 76.5 L 78 88 L 75 88 L 75 80.5 L 74 80.5 L 74 87.5 L 72 88 L 72 77.5 L 73.5 77 L 75 77.5 L 76.5 75 Z " /><path fill="rgb(16,19,30)" stroke="rgb(16,19,30)" stroke-width="1" opacity="1" d="M 40 77 Q 43.3 75.9 42 80 Q 38.7 81.1 40 77 Z " /><path fill="rgb(16,19,30)" stroke="rgb(16,19,30)" stroke-width="1" opacity="1" d="M 15.5 97 L 14.5 99 L 13 98.5 L 15.5 97 Z " /><path fill="rgb(16,19,30)" stroke="rgb(16,19,30)" stroke-width="1" opacity="1" d="M 20.5 107 L 21 109 Q 23.7 107.9 23 110.5 L 21 111.5 L 20.5 107 Z " /><path fill="rgb(16,19,30)" stroke="rgb(16,19,30)" stroke-width="1" opacity="1" d="M 18.5 109 L 19.5 111 L 18.5 109 Z " /><path fill="rgb(16,19,30)" stroke="rgb(16,19,30)" stroke-width="1" opacity="1" d="M 31.5 115 L 30.5 117 L 31.5 115 Z " /><path fill="rgb(16,19,30)" stroke="rgb(16,19,30)" stroke-width="1" opacity="1" d="M 75 115 Q 79.5 113.3 78 118.5 L 76.5 118 Q 73.5 118.7 75 115 Z " /><path fill="rgb(16,19,30)" stroke="rgb(16,19,30)" stroke-width="1" opacity="1" d="M 137.5 117 L 138 119.5 L 136.5 122 L 136 118.5 L 137.5 117 Z " /><path fill="rgb(16,19,30)" stroke="rgb(16,19,30)" stroke-width="1" opacity="1" d="M 72.5 118 L 73.5 120 Q 70.7 120.7 72.5 118 Z " /><path fill="rgb(16,19,30)" stroke="rgb(16,19,30)" stroke-width="1" opacity="1" d="M 30 120 L 32 120.5 L 30.5 124 L 30 120 Z " /><path fill="rgb(16,19,30)" stroke="rgb(16,19,30)" stroke-width="1" opacity="1" d="M 75.5 120 L 76 127.5 L 75 127.5 L 75.5 120 Z " /><path fill="rgb(16,19,30)" stroke="rgb(16,19,30)" stroke-width="1" opacity="1" d="M 140.5 120 L 143 120.5 L 140 122 L 140.5 120 Z " /><path fill="rgb(16,19,30)" stroke="rgb(16,19,30)" stroke-width="1" opacity="1" d="M 136.5 123 L 137 126.5 L 136 126.5 L 136.5 123 Z " /><path fill="rgb(16,19,30)" stroke="rgb(16,19,30)" stroke-width="1" opacity="1" d="M 140.5 123 L 142 125.5 L 139.5 129 L 139 124.5 L 140.5 123 Z " /><path fill="rgb(16,19,30)" stroke="rgb(16,19,30)" stroke-width="1" opacity="1" d="M 73.5 128 L 75 136.5 L 72.5 137 L 73 135.5 L 73.5 128 Z " /><path fill="rgb(16,19,30)" stroke="rgb(16,19,30)" stroke-width="1" opacity="1" d="M 120 128 Q 125.2 126.3 124 130 Q 118.8 131.7 120 128 Z " /><path fill="rgb(16,19,30)" stroke="rgb(16,19,30)" stroke-width="1" opacity="1" d="M 128.5 128 Q 133.3 126.3 132 130.5 L 128.5 132 L 127.5 130 L 130 131 Q 131.1 128.3 128.5 129 L 128.5 128 Z " /><path fill="rgb(16,19,30)" stroke="rgb(16,19,30)" stroke-width="1" opacity="1" d="M 118.5 136 L 119 137.5 L 118 140 L 116 139.5 L 118.5 136 Z " /><path fill="rgb(16,19,30)" stroke="rgb(16,19,30)" stroke-width="1" opacity="1" d="M 114.5 137 L 113.5 139 L 114.5 137 Z " /><path fill="rgb(16,19,30)" stroke="rgb(16,19,30)" stroke-width="1" opacity="1" d="M 49.5 141 Q 52.5 142.5 49.5 144 L 49.5 141 Z " /><path fill="rgb(16,19,30)" stroke="rgb(16,19,30)" stroke-width="1" opacity="1" d="M 52.5 143 L 53.5 145 L 52.5 143 Z " /><path fill="rgb(16,20,31)" stroke="rgb(16,20,31)" stroke-width="1" opacity="1" d="M 60 10 Q 63.7 8.8 62 14 Q 59 13 60 16 L 72 16 L 72 23.5 L 71 25.5 L 73.5 40 L 74 32 L 76 32.5 L 76 48 L 72 48.5 L 72 63.5 L 70 64.5 L 70 74.5 L 72 76.5 L 72 88 L 70 87.5 L 70 77.5 L 66.5 76 L 64.5 79 L 64 76 L 48.5 76 L 46 77 L 46 88 L 24 88 L 24 65.5 L 23 64.5 L 25 64 L 25 79.5 L 26.5 80 L 28 78.5 L 28.5 63 L 33 64 L 33 56.5 L 32 55.5 L 36 54 Q 34.9 51.3 37.5 52 L 40 53 L 40 56 Q 43 55 42 58 L 46 58 L 46 60 L 44 60 L 42 64 L 48 64 L 48 54.5 Q 45.7 53.2 48.5 52 L 63.5 52 L 65.5 53 L 68 52 L 70 47.5 L 70 29.5 L 67.5 26 Q 65.3 25.3 66 27.5 Q 64.8 30.3 63.5 28 L 60 26.5 L 60 24 L 57 23.5 L 57 16.5 L 58 12 Q 61 13 60 10 Z M 63 17 L 62 20 L 63 20 L 63 17 Z M 67 72 Q 67 76 69 73 L 67 72 Z M 40 77 Q 39 81 42 80 Q 43 76 40 77 Z " /><path fill="rgb(16,20,31)" stroke="rgb(16,20,31)" stroke-width="1" opacity="1" d="M 95.5 16 L 97.5 16 L 106.5 17 L 113 16 L 112 20.5 L 114.5 21 L 116 21 L 116 26 Q 109.7 24.5 108 28.5 L 107 40 L 94.5 40 L 94 37.5 L 95 32.5 L 94 31.5 L 94 24 L 96 23.5 L 94 20.5 L 96 20.5 L 95 18.5 L 95.5 16 Z " /><path fill="rgb(16,20,31)" stroke="rgb(16,20,31)" stroke-width="1" opacity="1" d="M 55.5 18 L 56 20.5 L 50.5 28 Q 46.8 29 48 26 L 50 26 Q 48.9 23.3 51.5 24 L 55.5 18 Z " /><path fill="rgb(16,20,31)" stroke="rgb(16,20,31)" stroke-width="1" opacity="1" d="M 121.5 28 L 124 28.5 L 121 29 L 120.5 32 L 120 29.5 L 121.5 28 Z " /><path fill="rgb(16,20,31)" stroke="rgb(16,20,31)" stroke-width="1" opacity="1" d="M 118 48 Q 121.7 46.8 120 52 L 127.5 52 L 129.5 52 L 132 53.5 L 133 55.5 L 132 56.5 L 132 74.5 L 130.5 76 L 120.5 76 L 120 72 L 118 72 L 118 48 Z M 128 58 L 128 64 L 130 64 L 130 58 L 128 58 Z " /><path fill="rgb(16,20,31)" stroke="rgb(16,20,31)" stroke-width="1" opacity="1" d="M 56.5 99 Q 59.5 99.5 59 103.5 L 58 104.5 L 58 112 Q 54.9 111.3 55.5 114 L 48 114 Q 49 111 46 112 L 46 126.5 L 44.5 128 Q 42.3 128.8 43 126.5 L 40 124.5 Q 41.5 128.9 38.5 128 L 34.5 123 L 32 121.5 L 33 119.5 L 33 104.5 L 32 100 L 55.5 100 L 56.5 99 Z " /><path fill="rgb(16,20,31)" stroke="rgb(16,20,31)" stroke-width="1" opacity="1" d="M 120 100 L 144 100 L 144 112 L 136 112 L 136 126.5 L 136 128.5 Q 136.7 131.1 134 130 L 134 132 L 131.5 132 L 132 130.5 L 131.5 128 L 120 128 Q 118.9 131.5 126.5 130 L 130 132 L 130 134 L 122.5 134 L 122 136 L 120.5 136 L 118 136.5 L 116 139.5 L 118 140.5 L 116.5 141 L 113.5 140 L 111.5 140 Q 107.8 140.8 107 138.5 L 111.5 137 L 113 137.5 Q 112.3 135.3 114.5 136 L 114.5 138 Q 117.8 139.1 117 136.5 L 118 135.5 L 118 104 Q 121.7 105.2 120 100 Z " /><path fill="rgb(16,20,31)" stroke="rgb(16,20,31)" stroke-width="1" opacity="1" d="M 70 112 L 72 112.5 L 72 127.5 L 73 128.5 L 73 136 L 70 135.5 L 70 112 Z " /><path fill="rgb(16,20,31)" stroke="rgb(16,20,31)" stroke-width="1" opacity="1" d="M 30.5 113 Q 32.8 112.3 32 114.5 L 30.5 113 Z " /><path fill="rgb(16,20,31)" stroke="rgb(16,20,31)" stroke-width="1" opacity="1" d="M 74 128 L 76 128.5 L 76 136.5 L 72.5 138 L 72.5 137 L 75 136.5 L 74 135.5 L 74 128 Z " /><path fill="rgb(16,20,31)" stroke="rgb(16,20,31)" stroke-width="1" opacity="1" d="M 52 138 L 55 139.5 Q 53.5 142.5 52 139.5 L 52 138 Z " /><path fill="rgb(16,20,31)" stroke="rgb(16,20,31)" stroke-width="1" opacity="1" d="M 75.5 140 L 76 142.5 L 75 142.5 L 75.5 140 Z " /><path fill="rgb(16,20,31)" stroke="rgb(16,20,31)" stroke-width="1" opacity="1" d="M 114 142 Q 117 141 116 144 Q 113 145 114 142 Z " /><path fill="rgb(16,20,31)" stroke="rgb(16,20,31)" stroke-width="1" opacity="1" d="M 108.5 143 L 112 144.5 L 106 146 Q 104.9 143.3 107.5 144 L 108.5 143 Z " /><path fill="rgb(18,18,27)" stroke="rgb(18,18,27)" stroke-width="1" opacity="0.9921568627450981" d="M 56.5 7 L 57 8.5 L 55 9.5 L 56.5 7 Z " /><path fill="rgb(18,18,27)" stroke="rgb(18,18,27)" stroke-width="1" opacity="0.9921568627450981" d="M 53.5 11 L 52.5 13 L 53.5 11 Z " /><path fill="rgb(18,18,27)" stroke="rgb(18,18,27)" stroke-width="1" opacity="0.9921568627450981" d="M 76.5 13 L 77.5 15 L 76.5 13 Z " /><path fill="rgb(18,18,27)" stroke="rgb(18,18,27)" stroke-width="1" opacity="0.9921568627450981" d="M 93.5 13 L 92.5 15 L 93.5 13 Z " /><path fill="rgb(18,18,27)" stroke="rgb(18,18,27)" stroke-width="1" opacity="0.9921568627450981" d="M 36.5 31 L 37 33 L 35 32.5 L 36.5 31 Z " /><path fill="rgb(18,18,27)" stroke="rgb(18,18,27)" stroke-width="1" opacity="0.9921568627450981" d="M 28.5 48 L 28 49.5 L 27.5 51 L 27 49.5 L 28.5 48 Z " /><path fill="rgb(18,18,27)" stroke="rgb(18,18,27)" stroke-width="1" opacity="0.9921568627450981" d="M 147.5 53 L 149 55.5 L 148 55.5 L 147.5 53 Z " /><path fill="rgb(18,18,27)" stroke="rgb(18,18,27)" stroke-width="1" opacity="0.9921568627450981" d="M 14.5 83 L 16 86.5 L 15 86.5 L 14.5 83 Z " /><path fill="rgb(18,18,27)" stroke="rgb(18,18,27)" stroke-width="1" opacity="0.9921568627450981" d="M 15.5 102 L 16 103.5 L 15 106.5 L 17 106.5 L 16.5 109 Q 13.5 108.5 14 104.5 L 15.5 102 Z " /><path fill="rgb(18,18,27)" stroke="rgb(18,18,27)" stroke-width="1" opacity="0.9921568627450981" d="M 154.5 103 L 157 104.5 L 155.5 105 L 154.5 103 Z " /><path fill="rgb(18,18,27)" stroke="rgb(18,18,27)" stroke-width="1" opacity="0.9921568627450981" d="M 29.5 135 L 30.5 137 L 29.5 135 Z " /><path fill="rgb(18,18,27)" stroke="rgb(18,18,27)" stroke-width="1" opacity="0.9921568627450981" d="M 124.5 139 L 127 140.5 L 125.5 141 L 124.5 139 Z " /><path fill="rgb(18,18,27)" stroke="rgb(18,18,27)" stroke-width="1" opacity="0.9921568627450981" d="M 129.5 139 L 128.5 141 L 129.5 139 Z " /></svg>